/* XPM */
static char *cead194151484185a1c36c2727030576r7XwlGe5lva6d4xU[] = {
/* columns rows colors chars-per-pixel */
"64 64 115 2 ",
"   c #020003",
".  c #0C0000",
"X  c #130000",
"o  c #190000",
"O  c #7F6F4C",
"+  c #7D6F53",
"@  c #865F34",
"#  c #895E36",
"$  c #85612F",
"%  c #8B6E2E",
"&  c #8C702F",
"*  c #876E35",
"=  c #8B6F30",
"-  c #826139",
";  c #866F3B",
":  c #886F39",
">  c #897030",
",  c #85703D",
"<  c #826F45",
"1  c #816F49",
"2  c #827144",
"3  c #837048",
"4  c #877E7E",
"5  c #887E7C",
"6  c #AA8652",
"7  c #AD835A",
"8  c #BB8F5E",
"9  c #BC905F",
"0  c #878076",
"q  c #85817D",
"w  c #BE8F61",
"e  c #B79266",
"r  c #BC9062",
"t  c #B5926A",
"y  c #B89168",
"u  c #AF9272",
"i  c #AB947B",
"p  c #B19374",
"a  c #D49F69",
"s  c #D4A067",
"d  c #D5A169",
"f  c #CDA275",
"g  c #C6A47E",
"h  c #CAA378",
"j  c #CAA37A",
"k  c #C9A279",
"l  c #CCA278",
"z  c #CDA278",
"x  c #CDA379",
"c  c #CEA378",
"v  c #CCA27A",
"b  c #C9A47A",
"n  c #CDA478",
"m  c #C9A37C",
"M  c #CAA37C",
"N  c #C9A37E",
"B  c #C9A47A",
"V  c #D1A170",
"C  c #D0A271",
"Z  c #D0A173",
"A  c #837E82",
"S  c #857F81",
"D  c #847F83",
"F  c #857F83",
"G  c #817F84",
"H  c #817E85",
"J  c #837E84",
"K  c #837E85",
"L  c #837D87",
"P  c #827F86",
"I  c #857E85",
"U  c #847F85",
"Y  c #857E86",
"T  c #847F86",
"R  c #847F86",
"E  c #897F80",
"W  c #847E88",
"Q  c #857F89",
"!  c #818183",
"~  c #828083",
"^  c #848081",
"/  c #868082",
"(  c #818085",
")  c #838184",
"_  c #828085",
"`  c #828186",
"'  c #838186",
"]  c #838087",
"[  c #858084",
"{  c #858086",
"}  c #858087",
"|  c #838085",
" . c #BEA489",
".. c #BFA58A",
"X. c #BFA58C",
"o. c #BCA68F",
"O. c #B9A791",
"+. c #C6A383",
"@. c #C2A482",
"#. c #C2A583",
"$. c #C3A583",
"%. c #C5A481",
"&. c #C6A481",
"*. c #C5A483",
"=. c #C7A582",
"-. c #C2A384",
";. c #C3A485",
":. c #C2A585",
">. c #C2A587",
",. c #C5A485",
"<. c #C4A684",
"1. c #C4A584",
"2. c #C0A588",
"3. c #C0A58A",
"4. c #C1A58D",
/* pixels */
"  ~ T T T T   _ T T T T ~ ~     G T _ _ ~ ~ _ q . . . . . . . . . 0 / A ~ ~ { T G T T T ~   T T T T T T   _ T T   ~ T T   G T T ",
"G   T T T T _   T T T       _ S 4 4 . . . . . . . + O 1 1 1 1 O + . . . . . q 4 4 4 S     _ T T T G T   _ _ T T _   T   _ _ T   ",
"T T   { T T   _ T T T T T T T 4 . . . + 3 < < < ; : : * : * : : , ; < < < 3 . . . . 4   _ G T G       T T T T T     T T   _   T ",
"T T T T T T   _ T T T T { S 5 . o.i . 1 : = = = = = = = = = = = > > = = = * < 1 1 O . . . 4 4 4   ~ T T T T T T _   T T _   T T ",
"      _ T T   ~ ~ _ G T _ 5 X +.g t X 1 : = % = = = = = = = = = = = = = = = * * : : ; 1 . . . . . ~ T T T T T T _   T T   _ T T ",
"~ ~ _   { T         T T / . g f f t X 1 : = = = = > = = = = = = = = % = = = = = = = * ; X O.i o.. 5 S T T T T T G _   T _ _ T T ",
"_ _ _       { T T T   / . i f d f t X 1 : = = = = = = = = % = = = = = = = = = = = * : < X 3.t &.:.X 5 T T { T T _   T T T { G T ",
"_   _   ~ _ T T T T _ . . u V s f t X 1 : = = = = = = = = = = = = = = = = = = = = * < X o M y z M p . 5 S T T       _ T T T T   ",
"  ~   T T T T T T T _ . ..y d s V t X 1 : = = = = = = = = = = = = = = = = = = = = * 1 X f V r f z t &.X 5 _     _ _     ~     T ",
"  _ T T T T T T T S 5 . &.r s s V t X 1 : = = = = = = = = = = = = = = = = = = = = * 1 X f d r f f r f g .   S _ T T _     _ T T ",
"T T T T   G T T _ 5 X &.j r s s f t X 1 : = = = = = = = = = = = = = % % > = = = = * 1 X j V r f f r d f i . S T T T T T T T T   ",
"T G T   T   T _ _ . &.f f r s s f t X 1 : = = = = = = = = = = = = = % % > = = = = * < X o j y f f 9 s V p . 4 T T T { T T T   T ",
"_ _ _   T T     _ . j d f r s s f t X 1 : = = = = = = = = = = = = = = = = = = = % = * ; o g y f f 9 s d y ... _ T T T G _ _   T ",
"_     _ T T T _   . f s f 9 s s f t X 1 : = = = = = = = = = = = = = = = = = = = & % = : o $.y f l 9 s s r :.. _ T T T T _   T T ",
"  _ G G T T T T ~ . f s f r s s f t X 1 : = = = > > = = = = = = = = = = = = = = = = = * o $.y f f 9 s s r -.. ~ ~ _ _ _   _ T T ",
"_ _ G G { T T T ~ . f s f 9 s s f t X 1 : = = = > > = = = = = = = = = = = = = = = = = * o $.y f f 9 s s r :..             T T T ",
"  _ T T _ _       . f s f r s s f t X 1 : % = = = = = = = = = = = = = = = = = = = = = * o $.y f f 9 s s r :.. T { T   _ T T T W ",
"_   T T     _ _ ~ . f s f r s s f t X 1 : = = = = = = = = = = = = = = = = = = = = = = * o $.y f f 9 s s r :.. T T T G   T T T T ",
"T T   _   _ T _ ~ . f s f r s s f t X 1 : = = = = = = = = = = = = = = = = = = = = = = * o $.y f f 9 s s r :.. _ T T T T   _ _ _ ",
"T T _   _ _ T G ~ . z s f r s s f t X 1 : = = = = = = = = = = = = = = = = = = = = = = * o $.y f l 9 s a r :.. _ T { W T   _     ",
"T T _   _ _       . f s V 9 s s f t X 1 : = = = = = = = = = = = = = = = = = = = = = > * o $.y f z 9 s s r :.. G T T G T T T   _ ",
"T T _   _   _ _ ~ . f s V r s s f t X 1 : = = = = = = = = = = = = = = = = = = = = = > * o $.y f z 8 a s r &.. 4 S T T T T T   _ ",
"T T G   T T T _ ~ . z s f 9 s s f t :.X : = = = = = = = = = = = = = = = = = = = = = = * o &.y f f 9 s s r g 4.. .   _ _ _   T T ",
"T T G   T T T _ ~ . f s f 9 s s f t ,.o * = = = = = = = = = = = = = = = = = = = = = = * o &.y f f 9 s s r B ,.X 5 _       _ T T ",
"_ _ _   _ _       . f s f 9 a s f t ,.o * > = = = = = = = = = = = = = = = = = = = = > * o ,.y f n r s s r B ,.X 5 G T   _ _ T T ",
"  _ _       G _ _ . f s f 9 s s f t ,.o * > = = = = = = = = = = = = = = = = = = = = = * o $.y f z r s s r g 3.. 5 T T T   _ T G ",
"_ _ T T _   T _ ~ . f s f 9 s s f t ,.o * = = = = = = = > > = = = = = = = = > > = = = * o :.y f f r s s r &.. 4 S T T T _     T ",
"  _ T T _ _   _ ~ . f s f 9 s s f t ,.o * = = = = = = = > > = = = = = = = = > > = = = * o $.y z f r s s 9 :.. _ T T T T _   T T ",
"_   T T G G   _ ~ . f s f 9 s s f t ,.o * = = = = = > > = = = = = = = = = = = = = = = * o $.y f f 9 s s 9 $.. _ T T T G _ _ T T ",
"_ _   { _ G   _ ~ . f s f 9 s s f t ,.o * = = = = = > > = = = = = = = = = = = = = = = * X $.y f f 9 s d y ... _ T T T     _ G G ",
"T T   _ G G   _ A . f s f 9 s s f y ,.o * = = = > > = = = = = = = = = = = = = = = = % * 1 X t f f 9 s V p . 4 T _ _   T _   G _ ",
"T T   _ _ _   { S . f s f 9 s s f y &.o : * = = > > = = = = = = = = = = = = = = = = % * 1 X t f f r s V i . 4 T _   T T _ _     ",
"_   T       T S 5 X f s f 9 s s f y j o ; : * = = = = = % % = = = = = = = = = = = = % * 1 X t f f 9 s d p . 5 T _     _ T G G G ",
"  T T T _ _   4 . 3.V s f 9 s s f y z B X , * = = = = = % % = = = = = = = = = = = = % * 1 X t f f 9 s d t o.. E S _ _   T T _ G ",
"T T T T _ _ _ . . &.V s f 9 s s f y z g X 2 : = = = = = > > = = = = = = = = = = = = = * X $.y f n 9 s s r &.o.. 5 T T T   _ T T ",
"T T T T G G _ . X g d s f r s s f y 7 o X 2 * = = = = = > > = = = = = = = = = = = = = * o $.y f f 9 s s r B ,.X 5 T T T   ~ T T ",
"T   T T G G T 5 X g d d f r d s f y 7 @ : * > = = = = = = = = = = = = = = = > > = = = * o $.y z f r a s r B ,.X 5 T T T   ~ T T ",
"_ _   T _ _ { 5 X g d s f 9 s s f y # @ * = = = = = = = = = = = = = = = = = > > = = = * o $.y f f 9 s s r B ,.X 5 T T _   ~ T T ",
"~ ~           . X g d s f 9 s s f y # 7 6 = = = = > = = = = = = = = = = = = = = = = = * o $.y f l 9 s s w B ,.X .           T G ",
"    _ _ _ ~ _ 5 X g d s f 9 s s f y # 7 $ = = = = > = = = = = = = = = = = = = = = = > * o ,.y f f 9 s s r B ,.X 5 G _ _ ~   _ T ",
"T { T T T T T 5 X g d s f r s s f y - - * = = = = = = = = = = = = = = = = = = = = = = * o &.y f z r s s r B ,.X 5 T G _   _     ",
"T T T T T T T 5 X g d s f 9 s s f e o < * % = = = = = = = = = = = = = = = = = = = = = * o &.y f z r s s r B ,.X 5 T T   _ _ _ _ ",
"{ T T T _ _   . X g d s f r s s f t X 1 * % = = = = = = = = = = = = = = = = = = = = > * o $.y f f 9 s s r B ,.X .   T T T T T S ",
"G T T G _   _ 5 X g d s f r s s f t X 1 : % % = = = = = = = = = = = = = = = = = = = > * o $.y f z 9 s s r B ,.X 5 _ T T T T T   ",
"  G       _ { 5 X g d s f 9 s s f t X 1 : = = = = = = = = = = = = = = = = = = = = = = * o $.y f f 9 s s r B ,.X 5 T T T _ _   T ",
"_   _ _ _ G T 5 X g d s f 9 s s f t X 1 : = = = = = = = = = = = = = = = = = = = = = = * o $.y f f 9 s s r M ,.X 5 T T _ _   T T ",
"T _   _ G T T 5 X g d s f 9 s s f t X 1 * = = = = = = = = = = = = = = = = = = = = = = * o $.y f f 9 s s r M ,.X 5 _ _ _         ",
"T T _   G G T 5 X g d s f 9 s s f t X 1 * % = = = = = = = = = = = = = = = = = = = = * : o g y f f 9 s s r M ,.X 5       _ _ _ _ ",
"T T T         . X g d s f r s s f t X 1 * = = = = = = = = = = = = = = = = = = = = * < X f V r f f 9 s s w M ,.X . _ G G T { G G ",
"T T T T   ~ _ 5 X g d s f r s s f t X 1 : = = = = = = = = = = = = = = = = = = = = : 1 X d s w f z r s s w j ,.X 5 _ T T T T G G ",
"T T T T   ~ G 5 X g d s f 9 s s f t X 1 : = = = = = = = = = = = = = = = = = = = = : 1 X d s w f f 9 s s r j ,.X 5 T T { T T T T ",
"T T T T   _ T 5 X g d s f 9 s s f t X 1 : = = = = = = = = = = = = = = = = = = = = * < X f V r f f 9 s s r B ,.X 5 T T T T G T T ",
"_ _ _ _   _ T 5 X g d s f 9 s s f t X 1 : = = = = = = = = = = = = = = = = = = = = = * : o g y f f 9 s s r B ,.X . _ T T _ _ _   ",
"        _ _ { 5 X g d s f 9 s s f t X 1 : = = = = = = = = = = = = = = = = = = = = = = * X $.y f f 9 s s r B ,.X 5   T T       _ ",
"T T _   T T _ 5 X g d s f r s s f t X 1 : = = = = = = = = = = = = = = = = = = = = = = * o $.y f f 9 s s r B ,.X 5 T     T T T T ",
"T T _   _ _   . X g d s f 9 s s f t X 1 : = = = = = = = = = = = = = = = = = = = = = = * o $.y f f 9 s s r B ,.X 5 T G   T T T T ",
"W T T       _ 5 X g d s f r s s f t X 1 : = = = = = = = = = = = = = = = = = = = = = = * o $.y f z 9 s s r B ,.X 5 G T T   S T S ",
"G T T _   ~ G 5 X g d s f r s s f t X < : = = = = = = = = = = = = = = = = = = = = = = * o $.y f z r s s r B ,.X 5 G T G ~     S ",
"T G T T   ~ { 5 X g d s f r s s f t :.X : > = = = = = = = = > > = = = = = = = = = = % * o $.y f f 9 s s r B ,.X 5 T T T ~ ~     ",
"T T T _   _ T 5 X g d s f 9 s s f t :.o : = = % = = = = = = > > = = = = = = = = = = % * o $.y f f 9 s s r B ,.X 5 T T T _   _ _ ",
"  ~ _ _   _ T 5 X g d s f 9 s s f t :.X : = > > = = > > = = = = = = > > = = = = = = = * o $.y f f 9 s s r B ,.X 5 T T T   _ { T ",
"~       _ _ T 5 X g d s f 9 s s f t X 1 : = > > = = > > = = = = = = > > = = = = = = = * o $.y f z 9 s s r B ,.X 5 T T   T _ T W ",
"T _ _   T T T 5 X g d s f r s s f t X 1 : > = = = = = = = = = = = = = = = = = = = = = * o $.y f z r s s r B ,.X 5 T {   T T T T ",
"T T _   T T T 5 X g d s f r s s f t X 1 : % = = = = = = = = = = = = = = = = = = = = = * o $.y f z r s s w B ,.X 5 T   _ T T T T "
};
