/* XPM */
static char *_8bc2e129ab8471297bdb27cc2d880f1i0eQDXkJPk5dyRgL[] = {
/* columns rows colors chars-per-pixel */
"64 64 244 2 ",
"   c #010000",
".  c #030000",
"X  c #000002",
"o  c #010002",
"O  c #030002",
"+  c #040000",
"@  c #060000",
"#  c #070000",
"$  c #000004",
"%  c #010004",
"&  c #010005",
"*  c #030004",
"=  c #020005",
"-  c #030005",
";  c #040004",
":  c #080000",
">  c #0A0000",
",  c #0B0000",
"<  c #0C0000",
"1  c #0D0000",
"2  c #0E0000",
"3  c #0F0000",
"4  c #110000",
"5  c #120000",
"6  c #130000",
"7  c #140000",
"8  c #150000",
"9  c #160000",
"0  c #180000",
"q  c #190000",
"w  c #1B0000",
"e  c #1C0000",
"r  c #1D0000",
"t  c #1F0000",
"y  c #8F5B36",
"u  c #8E5C37",
"i  c #8D5B38",
"p  c #8D5C3B",
"a  c #8E5C3B",
"s  c #8A5B3D",
"d  c #8E5B3C",
"f  c #8B5D3C",
"g  c #915C32",
"h  c #915B35",
"j  c #925A35",
"k  c #905C35",
"l  c #905C37",
"z  c #92593B",
"x  c #915A3B",
"c  c #905B3B",
"v  c #945939",
"b  c #905B3C",
"n  c #8D5B42",
"m  c #8A5D40",
"M  c #B57E5F",
"N  c #8B7E76",
"B  c #877D7B",
"V  c #877D7C",
"C  c #877F7D",
"Z  c #857F7F",
"A  c #877E7F",
"S  c #897E78",
"D  c #887D7B",
"F  c #897E7A",
"G  c #887F7A",
"H  c #897D7D",
"J  c #887E7C",
"K  c #897E7C",
"L  c #887E7D",
"P  c #887E7F",
"I  c #B17E61",
"U  c #B67D60",
"Y  c #B57D62",
"T  c #B27F64",
"R  c #B87C60",
"E  c #BB8F5E",
"W  c #BD8F5E",
"Q  c #BF8F5F",
"!  c #BC905F",
"~  c #BE905F",
"^  c #BB8F60",
"/  c #BE8F61",
"(  c #BE8F63",
")  c #BC8F66",
"_  c #BF8E66",
"`  c #BE8E68",
"'  c #BD8F6B",
"]  c #BB9063",
"[  c #BD9160",
"{  c #BC9061",
"}  c #BF9160",
"|  c #BF9062",
" . c #B89166",
".. c #BA9066",
"X. c #B7916A",
"o. c #B3926F",
"O. c #B4926F",
"+. c #B89168",
"@. c #BA9068",
"#. c #AF9272",
"$. c #AE9375",
"%. c #AE9378",
"&. c #AC9478",
"*. c #A9957D",
"=. c #AA947F",
"-. c #AC947C",
";. c #B39271",
":. c #B19273",
">. c #B09373",
",. c #B39273",
"<. c #B19275",
"1. c #B09375",
"2. c #B09276",
"3. c #B0927A",
"4. c #D79F64",
"5. c #DA9F65",
"6. c #D49F69",
"7. c #D39F6D",
"8. c #D4A067",
"9. c #D7A067",
"0. c #D8A063",
"q. c #D8A065",
"w. c #D9A166",
"e. c #D8A067",
"r. c #D4A168",
"t. c #D5A168",
"y. c #D7A068",
"u. c #D6A269",
"i. c #D5A06A",
"p. c #D4A16A",
"a. c #D7A06A",
"s. c #D6A16B",
"d. c #D5A26B",
"f. c #D3A16C",
"g. c #D2A06D",
"h. c #D3A16E",
"j. c #D1A26E",
"k. c #D5A06C",
"l. c #D4A16C",
"z. c #D4A26F",
"x. c #CFA170",
"c. c #CEA271",
"v. c #CEA273",
"b. c #CBA276",
"n. c #CDA275",
"m. c #CCA375",
"M. c #CFA374",
"N. c #CEA275",
"B. c #CDA076",
"V. c #CCA176",
"C. c #CEA177",
"Z. c #CDA277",
"A. c #CCA377",
"S. c #CFA376",
"D. c #CAA477",
"F. c #C6A27E",
"G. c #C7A37F",
"H. c #C5A57F",
"J. c #C6A47E",
"K. c #C7A47E",
"L. c #C9A279",
"P. c #CAA378",
"I. c #C8A27B",
"U. c #CAA37A",
"Y. c #CCA278",
"T. c #CDA278",
"R. c #CDA379",
"E. c #CEA378",
"W. c #CEA17A",
"Q. c #CCA27A",
"!. c #CFA27B",
"~. c #C9A47A",
"^. c #CDA478",
"/. c #C9A37C",
"(. c #CAA37C",
"). c #C9A37E",
"_. c #CAA27F",
"`. c #CCA17F",
"'. c #CAA47D",
"]. c #D1A170",
"[. c #D0A271",
"{. c #D0A173",
"}. c #D1A173",
"|. c #D3A073",
" X c #D4A070",
".X c #D6A071",
"XX c #D1A075",
"oX c #D0A175",
"OX c #D0A177",
"+X c #837E82",
"@X c #857F81",
"#X c #847F83",
"$X c #857F83",
"%X c #817F84",
"&X c #817E85",
"*X c #837E84",
"=X c #837E85",
"-X c #837D87",
";X c #827F86",
":X c #857E85",
">X c #847F85",
",X c #857E86",
"<X c #847F86",
"1X c #897F80",
"2X c #847E88",
"3X c #857F89",
"4X c #818183",
"5X c #828083",
"6X c #848081",
"7X c #868082",
"8X c #818085",
"9X c #838184",
"0X c #828085",
"qX c #828284",
"wX c #828186",
"eX c #838186",
"rX c #838087",
"tX c #858084",
"yX c #858086",
"uX c #858087",
"iX c #BEA489",
"pX c #BFA58A",
"aX c #BFA58C",
"sX c #BEA68C",
"dX c #BFA58E",
"fX c #BCA68F",
"gX c #BBA693",
"hX c #C6A383",
"jX c #C3A583",
"kX c #C5A481",
"lX c #C6A481",
"zX c #C5A483",
"xX c #C7A582",
"cX c #C2A384",
"vX c #C3A485",
"bX c #C2A585",
"nX c #C2A587",
"mX c #C5A485",
"MX c #C4A684",
"NX c #C0A588",
"BX c #C1A688",
"VX c #C3A688",
"CX c #C0A58A",
"ZX c #C1A58D",
/* pixels */
"o 5X<X<X<X<X% 0X<X<X<X<X5X5X% % <X<X0X0X0X5X0XA : 3 3 5 7 7 7 5 3 N A 0X5X5X<X<X<X<X<X<X5Xo <XyX<X<X<X<X% 0X<X<X% 5X<X<X% %X<X<X",
"%X% <X<X<X<X0X% <X<X<X% % % 0X@XA K : 3 : 3 : 3 5 fX&.BXH.H.2.fXgX3 3 3 : : K K K A @X% o 0XyX<X<X%X<X% 0X0X<X<X0Xo <X% 0X0X<X; ",
"<X<X% yX<X<X% 0X<X<X<X<X<X<X<XA : 5 G.B.B.U.O.G.B.B.+.U.].].+.lXBX7 (.E.O.BX5 3 5 3 A % 0X0X%X<X% % % <X<X<X<X<X% o <X<X% 0X% <X",
"<X<X<X<X<X<X% 0X<X<X<X<XyX@XF 3 fXo.f.q.q.t./ ].t.t./ ].t.t./ (.jX0 f.t.! '.vX$.lXvX3 : : F K A o 5X<X<X<X<X<X<X0X% <X<X0Xo <X<X",
"% % % 0X<X<X% 5X5X0X<X<X0XF 7 hXG. .l.q.4.t./ ].t.t./ ].t.t./ U.jXt f.t.! U.U. .].v.G.;.mX0 5 : # 5X<X<X<X<X<X<X0X% <X<X% 0X<X<X",
"5X5X0X% yX<X% o % % <X<X7X3 G.v.B.{ t.q.q.t./ ].6.t./ ].t.t./ U.mXt f.t.! A.B.! t.t.].] v.E.;.fX: K @X<X<X<X<X<X%X0X% <X0X0X<X<X",
"0X0X0X% % % yX<X<X<X% 7X# *.B.f.v.{ t.q.q.t./ ].t.t./ v.t.t./ U.jXt f.t.! B.B.! t.t.].{ f.f. .lXvX5 K <X<XyX<X<X0X% <X<X<XyX%X<X",
"0X% 0X% 5X0X<X<X<X<X0X# 3 #.].t.v.! t.q.q.t./ ].t.t.{ ].t.t./ U.mXt f.t.! B.B.! t.t.].! t.t./ E.(.2.3 F @X<X<X% % % 0X<X<X<X<X% ",
"o 5X% <X<X<X<X<X<X<X0X: pX .l.t.v.! t.q.q.t./ ].t.t./ v.t.t./ U.jXt f.t.! B.B.! t.t.].! t.t./ E.E.X.lX7 F 0X% % 0X0X% o 5Xo % <X",
"% 0X<X<X<X<X<X<X<X@XF 3 lX{ t.t.v.! t.q.q.t./ ].t.t./ v.t.t.! U.jXt l.t.{ ^.B.! t.t.].! t.t./ B.B.] v.G.3 o @X0X<X<X0Xo o 0X<X<X",
"<X<X<X<Xo %X<X<X0XF 7 lXU.{ t.t.v.! t.q.q.t./ ].t.t./ ].t.t.! U.jXt l.t.{ B.B.! t.t.].Q t.t./ B.B.{ f.B.*.# @X<X<X<X<X<X<X<X<X% ",
"<X%X<X% <X% <X0X0X: lXv.B.{ t.t.v.! t.q.q.t./ ].t.t.! ].t.t.! (.vX0 f.t.! B.B.{ t.t.].Q t.t./ B.B.! t.].;.3 A <X<X<XyX<X<X<X% <X",
"0X0X0X% <X<X% % 0X: U.f.v.{ t.t.v.! t.q.q.t./ ].t.t.! ].t.t.! H.7 BX].t.Q B.B.! t.t.].! t.t./ B.B.! t.l. .pX: 0X<X<X<X%X0X0X% <X",
"0X% % 0X<X<X<X0Xo : B.t.v.! t.t.v.! t.q.q.t./ ].t.t.! ].t.t.! H.7 7 ].t.{ B.B.! t.t.XX{ t.t./ B.b.! t.8.{ vX: 0X<X<X<X<X0X% <X<X",
"% 0X%X%X<X<X<X<X5X3 B.t.v.{ t.t.v.! t.q.q.t./ ].t.t.! ].t.t.! (.BX0 f.t.{ B.B.! t.t.].! t.t./ B.B.! t.t.{ cX: 5X5X0X0X0X% 0X<X<X",
"0X0X%X%XyX<X<X<X5X3 B.t.v.! t.t.v.! t.q.q.t./ ].t.t./ ].t.t./ U.jXt f.t.{ B.B./ t.t.].! t.t./ B.B.! t.t.{ vX: o o % % % % <X<X<X",
"o 0X<X<X0X0X% % o : B.t.B.{ t.t.v.! t.q.q.t./ ].t.t./ ].t.t./ U.jXt f.t.{ B.B./ t.t.].! t.t./ B.B.! t.t.{ vX: <XyX<X% 0X<X<X<X2X",
"0X% <X<X% o 0X0X5X: B.t.v.{ t.t.v.! t.q.q.t./ ].t.t./ ].t.t./ U.jXt f.t.{ B.B.! t.t.].! t.t./ B.B.! t.t.{ vX: <X<X<X%X% <X<X<X<X",
"<X<X% 0X% 0X<X0X5X3 B.t.v.! t.t.v.! t.q.q.t./ ].t.t./ ].t.t./ U.jXt f.t.] b.B.! t.t.].! t.t./ B.B.! t.t.{ vX: 0X<X<X<X<X% 0X0X0X",
"<X<X0X% 0X0X<X%X5X3 B.t.v.! t.t.v.! t.q.q.t./ ].t.t./ ].t.t./ U.jXt f.t.{ B.B.! t.t.].! t.t./ B.b.! t.6.{ vX: 0X<XyX2X<X% 0X% % ",
"<X<X0X% 0X0X% % o : B.t.].! t.t.v.! t.q.q.t./ ].t.t./ ].t.t./ U.jXt f.t.{ B.B.! t.t.XX{ t.t./ B.B.! t.t.{ vX: %X<X<X%X<X<X<X% 0X",
"<X<X0X% 0X% 0X0X5X: B.t.].! t.t.v.! t.q.q.t./ ].t.t./ ].t.t./ U.jXt f.t.{ B.B.! t.t.XX! t.t./ B.B.E 6.t.{ lX3 A @X<X<X<X<X<X% 0X",
"<X<X%X% <X<X<X0X5X3 E.t.v.! t.t.v.! t.q.q.t./ ].t.t./ ].t.t./ U.jXt f.t.{ A.B.! t.t.XX{ t.t./ B.B.! t.t.{ H.ZX3 # % 0X0X0X% <X<X",
"<X<X%X% <X<X<X0X5X3 B.t.v.! t.t.v.! t.q.q.t./ ].t.t./ ].t.t./ U.jXt f.t.{ A.B.! t.t.].{ t.t./ B.B.! t.t.{ ~.mX5 F 0X% % % 0X<X<X",
"0X0X0X% 0X0X% % o : B.t.v.! 6.t.v.! t.q.q.t./ ].t.t./ ].t.t./ U.0 H.f.t.{ B.B.! t.t.].! t.t./ B.^.! t.t.{ ~.mX5 K %X<X% 0X0X<X<X",
"% 0X0X% % o %X0X0X: B.t.v.! t.t.v.! t.q.q.t./ ].t.t./ ].t.t./ U.0 H.f.t.{ B.B.! t.t.].! t.t./ B.E.! t.8.{ H.BX3 K <X<X<X% 0X<X%X",
"0X0X<X<X0X% <X0X5X3 B.8.v.! t.t.v.! t.q.q.t./ ].t.t./ ].t.t./ U.0 H.f.t.{ B.B.! t.t.].! t.t./ B.B.! t.t.{ lX3 A @X<X<X<X0Xo % <X",
"% 0X<X<X0X0X% 0X5X3 B.t.v.! t.t.v.! t.q.q.t./ ].t.t./ ].t.t./ U.0 H.f.t.{ B.B.! t.t.].! t.t./ B.B.! t.t.! vX: 0X<X<X<X<X0Xo <X<X",
"0X% <X<X%X%X% 0X5X3 B.t.v.! t.t.v.! t.q.q.t./ ].t.t./ ].t.t./ U.0 H.f.t.{ B.B.! t.t.XX{ t.t./ B.B.! t.t.! jX: 0X<X<X<X%X0X0X<X<X",
"0X0X% yX0X%X% 0X5X3 B.t.v.! t.t.v.! t.q.q.t./ ].t.t./ ].t.t./ U.0 H.f.t.{ B.B.! t.t.XX{ t.t./ B.B.! t.l. .pX: 0X<X<X<X% % 0X%X%X",
"<X<X% 0X%X%X% 0X+X3 B.t.v.! t.t.v.! t.q.q.t./ ].t.t./ ].t.t./ U.0 H.f.t.{ B.B.! t.t.].{ t.t./ B.B.! t.].2.3 A <X0X0X% <X0X% %X0X",
"<X<X% 0X0X0X% yX@X3 B.t.v.! t.t.v.! t.q.q.t./ ].t.t./ ].t.t.] (.0 (.f.t.{ B.B./ t.t.XX{ t.t./ B.B.{ t.].%.: A <X0X% <X<X0X0X% % ",
"0X% <X% % % <X@XF 5 B.t.v.! t.t.v.! t.q.q.t./ ].t.t./ ].t.f.X.lXt B.t.t.{ B.B./ t.t.].{ t.t./ E.B.! t.f.;.3 K <X0X% % 0X<X%X%X%X",
"% <X<X<X0X0X% A : BX].t.v.! t.t.v.! t.q.q.t./ ].t.t./ ].t.].;.0 E.].t.t.{ B.B./ t.t.].! t.t./ E.B.! t.f.X.fX3 1X@X0X0X% <X<X0X%X",
"<X<X<X<X0X0X0X# 3 lX].t.v.! t.t.v.! t.q.q.t./ ].t.t.! ].t.].%.7 B.t.q.t.] A.B.{ t.t.].! t.t./ E.^.! t.t.] lXfX3 K <X<X<X% 0X<X<X",
"<X<X<X<X%X%X0X# 5 H.f.t.v.{ t.t.v.! t.q.q.t./ ].t.t./ XX7.B.-.7 ].q.q.t.{ B.E.! t.t.].! t.t./ B.B.! t.t.{ ~.mX5 K <X<X<X% 5X<X<X",
"<X% <X<X%X%X<XK 5 H.f.t.v.{ t.t.v.! t.q.5.t./ ].t.l.) a u `.*.7 ].0.q.t.{ B.B.! t.t.].! t.t./ B.B.{ 6.t.{ ~.mX5 K <X<X<X% 5X<X<X",
"0X0X% <X0X0XyXK 5 H.f.t.v.! t.8.v.! t.q.5.t./ ].l. Xi I b m 3.0 B.t.8.t.{ B.B.! t.t.].! t.t./ B.B.! t.t.{ ~.mX5 K <X<X0Xo 5X<X<X",
"5X5X% % % o % # 5 H.f.t.v.! t.t.v.! t.q.q.t./ B.XXg z U U M f (.t D.l.t.{ B.B.! t.t.v.! t.t.{ B.b.! t.t.^ ~.mX5 # % % % o o <X%X",
"% % 0X0X0X5X0XF 5 H.f.t.v.! t.t.v.! t.q.q.t./ B.XXl z U R v h E.0 H.f.t.{ B.B./ t.t.v.! t.t.{ B.B.! t.t.{ ~.mX5 F %X0X0X5X% 0X<X",
"<XyX<X<X<X<X<XK 5 H.f.t.v.! t.t.v.! t.q.q.t./ B.XXh z U U z h E.0 H.f.t.{ B.E./ t.t.].{ t.t./ B.B.! t.t.{ ~.mX5 K <X%X0X% 0X% % ",
"<X<X<X<X<X<X<XK 5 H.f.t.v.! t.t.v.! t.q.q.t./ B.].g M U U b l E.0 H.f.t.{ B.E./ t.t.].{ t.t.! B.B.! t.t.{ ~.mX5 F <X<X% 0X0X0X0X",
"yX<X<X<X0X0X% # 5 H.f.t.v.! t.t.v.! t.q.q.t./ ].l. Xa n T d ` E.0 H.f.t.{ B.B./ t.t.].{ t.t.! B.B.! t.t.{ ~.mX5 # % <X<X<X<X<X@X",
"%X<X<X%X0X% 0XK 5 H.f.t.v.! t.t.v.! t.q.q.t./ ].t.l.` s z y ) U.0 H.f.t.{ B.B./ t.t.XX{ t.t.! B.B.! t.t.{ ~.mX5 K 0X<X<X<X<X<Xo ",
"% %X% % % 0XyXK 5 H.f.t.v.! t.t.v.! t.5.q.t./ ].t.t./ XX X X/ U.0 H.f.t.{ B.B.{ t.t.].! t.t.! B.B.! t.t.{ ~.mX5 K <X<X<X0X0X% <X",
"0X% 0X0X0X%X<XK 5 H.f.t.v.! t.t.v.! t.5.q.t./ ].t.t./ ].t.t./ U.0 H.f.t.{ E.B.{ t.t.].! t.t./ B.B.! t.t.{ (.mX5 K <X<X0X0X% <X<X",
"<X0X% 0X%X<X<XK 5 H.f.t.v.! t.t.v.! t.q.q.t./ ].t.t./ ].t.t./ U.0 H.l.t.{ E.B.! t.t.].! t.t./ B.B.! t.t.{ (.mX5 K 0X0X0X% o % % ",
"<X<X0X% %X%X<XK 5 H.f.t.v.! t.t.v.! t.q.q.t./ ].t.t./ ].t.8./ U.0 H.l.t.{ E.B.! t.t.].! t.t./ B.B.! t.t.{ (.mX5 K % % % 0X0X0X0X",
"<X<X<X% % % % # 5 H.f.t.v.! t.t.v.! t.q.q.t./ ].t.t./ ].t.t./ U.0 H.f.t.{ B.B.! t.t.].! t.t./ B.B.! t.t./ (.mX5 # 0X%X%X<XyX%X%X",
"<X<X<X<Xo 5X0XK 5 H.f.t.v.! t.t.v.! t.q.q.t./ ].t.t./ ].t.t./ U.0 H.f.t.{ B.B.! t.t.].! t.t./ B.E.! t.t./ U.mX5 K 0X<X<X<X<X%X%X",
"<X<X<X<X% 5X%XB 5 H.f.t.v.! t.t.v.! t.q.q.t./ ].t.t./ ].t.t./ U.0 H.f.t.{ B.B.! t.t.XX{ t.t./ B.B.! t.t.{ U.mX7 K <X<XyX<X<X<X<X",
"<X<X<X<X% 0X<XK 5 H.f.t.v.! t.t.v.! t.q.q.t./ ].t.t./ ].t.t./ U.0 H.f.t.{ B.B.! t.t.XX{ t.t./ B.B.! t.t.{ ~.mX7 K <X<X<X<X%X<X<X",
"0X0X0X0X% 0X<XK 5 H.f.t.v.! t.t.v.! t.q.q.t./ ].t.t./ ].t.t./ U.0 H.f.t.{ B.B.! t.t.].{ t.t./ B.B.! t.t.{ ~.mX5 # 0X<X<X0X0X0X% ",
"% % % % 0X0XyXF 5 H.f.t.v.! t.t.v.! t.q.q.t./ ].t.t./ ].t.t./ U.0 H.f.t.{ A.B.! t.t.].{ t.t./ B.B.! t.t.{ ~.mX5 F % <X<X% % % 0X",
"<X<X0X% <X<X0XF 5 H.f.t.v.! t.t.v.! t.q.q.t./ ].t.t./ ].t.t./ U.0 H.f.t.{ B.B.! t.t.].! t.t./ B.B.! t.t.{ ~.mX5 K <X% % <X<X<X<X",
"<X<X0X% 0X0X% # 5 H.f.t.v.! t.t.v.! t.q.q.t./ ].t.t./ ].t.t./ U.0 H.f.t.{ A.B.! t.t.].! t.t./ B.B.! t.t.{ ~.mX5 K <X%X% <X<X<X<X",
"2X<X<X% % % 0XK 5 H.f.t.v.! t.t.v.! t.q.q.t./ ].t.t./ ].t.t./ U.0 H.f.t.{ B.B.! t.t.].! t.t./ B.B.! t.t.{ ~.mX5 K %X<X<X% @X<X@X",
"%X<X<X0Xo 5X%XK 5 H.f.t.v.! t.t.v.! t.q.q.t./ ].t.t./ ].t.t./ U.0 H.f.t.{ B.B.! t.t.].! t.t./ B.B.! t.t.{ ~.mX5 K %X<X%X5Xo o @X",
"<X%X<X<Xo 5XyXB 5 H.f.t.v.! t.t.v.! t.q.q.t./ ].t.t./ ].t.t./ U.0 H.f.t.{ A.B.! t.t.].! t.t./ B.B.! t.t.{ ~.mX5 K <X<X<X5X5X% % ",
"<X<X<X0X% 0X<XK 5 H.f.t.v.! t.t.v.! t.q.q.t./ ].t.t./ ].t.t./ U.0 H.f.t.{ B.B.! t.t.].! t.t./ B.B.! t.t.{ ~.mX5 K <X<X<X0X% 0X0X",
"o 5X0X0X% 0X<XK 5 H.f.t.v.! t.t.v.! t.q.q.t./ ].t.t./ ].t.t./ U.0 H.f.t.{ B.B.! t.t.XX{ t.t./ B.B.! t.t.{ ~.mX7 K <X<X<X% 0XyX<X",
"5Xo % % 0X0X<XK 5 H.f.t.v.! t.t.v.! t.q.q.t./ ].t.t./ ].t.t./ U.0 H.f.t.{ B.B.! t.t.XX! t.t./ B.B.! t.t.{ ~.mX7 K <X<X% <X0X<X2X",
"<X0X0X% <X<X<XK 5 H.f.t.v.! t.t.v.! t.q.q.t./ ].t.t./ ].t.t./ U.0 H.f.t.{ B.B.! t.t.XX{ t.t./ B.B.! t.t.{ ~.mX5 K <XyX% <X<X<X<X",
"<X<X0X% <X<X<XK 5 H.f.t.v.! t.t.v.! t.q.q.t./ ].t.t./ ].t.t./ U.0 H.f.t.{ B.B.! t.t.].{ t.t./ B.B.! t.t./ ~.mX5 K <X% 0X<X<X<X<X"
};
