/* XPM */
static char *_7152a303be44bfbae6be8e5882e37e62jlX353wB2xBDRfF[] = {
/* columns rows colors chars-per-pixel */
"64 64 242 2 ",
"   c #010000",
".  c #030000",
"X  c #000002",
"o  c #010002",
"O  c #030002",
"+  c #040000",
"@  c #060000",
"#  c #070000",
"$  c #000004",
"%  c #010004",
"&  c #010005",
"*  c #030004",
"=  c #020005",
"-  c #030005",
";  c #040004",
":  c #080000",
">  c #0A0000",
",  c #0B0000",
"<  c #0C0000",
"1  c #0D0000",
"2  c #0E0000",
"3  c #0F0000",
"4  c #0E0100",
"5  c #110000",
"6  c #120000",
"7  c #130000",
"8  c #140000",
"9  c #150000",
"0  c #160000",
"q  c #180000",
"w  c #190000",
"e  c #7F6F4B",
"r  c #7F6F4D",
"t  c #7F7047",
"y  c #7F7049",
"u  c #7E704D",
"i  c #7D6F52",
"p  c #7E6F52",
"a  c #7B6F55",
"s  c #945C2B",
"d  c #8B5F32",
"f  c #8F5C31",
"g  c #8D5D37",
"h  c #885E38",
"j  c #895F39",
"k  c #905B31",
"l  c #905D32",
"z  c #925B34",
"x  c #915C34",
"c  c #8B6F2E",
"v  c #8A6E2F",
"b  c #8C702F",
"n  c #876035",
"m  c #8B6F30",
"M  c #8B6E32",
"N  c #8C6E30",
"B  c #8D6F31",
"V  c #8C6E32",
"C  c #8B6E34",
"Z  c #8B6D37",
"A  c #896E37",
"S  c #886F37",
"D  c #876E38",
"F  c #866F39",
"G  c #866F3B",
"H  c #866F3D",
"J  c #856F3E",
"K  c #886F39",
"L  c #8C6C3B",
"P  c #906B36",
"I  c #867037",
"U  c #8C7031",
"Y  c #897038",
"T  c #816F47",
"R  c #826F47",
"E  c #846F44",
"W  c #846E47",
"Q  c #816F49",
"!  c #826E49",
"~  c #B67F58",
"^  c #877D7B",
"/  c #877D7C",
"(  c #877F7C",
")  c #877F7D",
"_  c #857F7F",
"`  c #877E7F",
"'  c #897E78",
"]  c #887D7B",
"[  c #897E7A",
"{  c #887F7A",
"}  c #897D7D",
"|  c #887E7C",
" . c #897E7C",
".. c #887E7D",
"X. c #887E7F",
"o. c #AA8559",
"O. c #B28159",
"+. c #B1815B",
"@. c #BB8F5E",
"#. c #BD8F5E",
"$. c #BF8F5F",
"%. c #BC905F",
"&. c #BE905F",
"*. c #878076",
"=. c #84807F",
"-. c #BB8F60",
";. c #BE8F61",
":. c #BF8F61",
">. c #BB9063",
",. c #BD9160",
"<. c #BC9061",
"1. c #BF9160",
"2. c #B89166",
"3. c #BA9066",
"4. c #B59268",
"5. c #B79268",
"6. c #B7916A",
"7. c #B5926A",
"8. c #B4936A",
"9. c #B6936B",
"0. c #B5916F",
"q. c #B4926F",
"w. c #B8916A",
"e. c #AF9272",
"r. c #AD9274",
"t. c #AE9375",
"y. c #AE9378",
"u. c #A9957D",
"i. c #B39271",
"p. c #B19273",
"a. c #B09373",
"s. c #B39273",
"d. c #B19275",
"f. c #B09375",
"g. c #D79F64",
"h. c #D49F69",
"j. c #D79F6C",
"k. c #D7A165",
"l. c #D4A067",
"z. c #D8A063",
"x. c #D8A065",
"c. c #D9A166",
"v. c #D8A067",
"b. c #D4A168",
"n. c #D5A168",
"m. c #D7A068",
"M. c #D6A269",
"N. c #D5A06A",
"B. c #D4A16A",
"V. c #D7A06A",
"C. c #D6A16B",
"Z. c #D3A16C",
"A. c #D3A16E",
"S. c #D1A26E",
"D. c #D4A16C",
"F. c #D5A06E",
"G. c #D8A169",
"H. c #D8A16B",
"J. c #CEA271",
"K. c #CEA273",
"L. c #CBA276",
"P. c #CDA275",
"I. c #CCA375",
"U. c #CFA374",
"Y. c #CEA275",
"T. c #CDA076",
"R. c #CCA176",
"E. c #CEA177",
"W. c #CDA277",
"Q. c #CCA377",
"!. c #C7A37F",
"~. c #C7A47C",
"^. c #C6A47E",
"/. c #C7A47E",
"(. c #C6A47F",
"). c #CAA378",
"_. c #CAA37A",
"`. c #CCA278",
"'. c #CDA379",
"]. c #CEA378",
"[. c #C9A47A",
"{. c #CDA478",
"}. c #C9A37C",
"|. c #CAA37C",
" X c #C8A27E",
".X c #C8A57D",
"XX c #D1A170",
"oX c #D0A271",
"OX c #D0A173",
"+X c #D1A173",
"@X c #837E82",
"#X c #857F81",
"$X c #847F83",
"%X c #857F83",
"&X c #817F84",
"*X c #817E85",
"=X c #837E84",
"-X c #837E85",
";X c #837D87",
":X c #827F86",
">X c #857E85",
",X c #847F85",
"<X c #857E86",
"1X c #847F86",
"2X c #897F80",
"3X c #847E88",
"4X c #857F89",
"5X c #818183",
"6X c #828083",
"7X c #848081",
"8X c #868082",
"9X c #818085",
"0X c #838184",
"qX c #828085",
"wX c #828186",
"eX c #838186",
"rX c #838087",
"tX c #858084",
"yX c #858086",
"uX c #858087",
"iX c #BEA489",
"pX c #BFA58A",
"aX c #BFA58C",
"sX c #BCA68F",
"dX c #B9A791",
"fX c #C4A382",
"gX c #C6A383",
"hX c #C3A583",
"jX c #C0A683",
"kX c #C5A481",
"lX c #C6A481",
"zX c #C5A483",
"xX c #C7A582",
"cX c #C2A384",
"vX c #C3A485",
"bX c #C2A585",
"nX c #C0A587",
"mX c #C2A587",
"MX c #C5A485",
"NX c #C0A588",
"BX c #C0A58A",
"VX c #C1A58D",
/* pixels */
"o 6X1X1X1X1X% qX1X1X1X1X6X6X% % 1X1XqXqXqX6XqX=.# : 3 3 3 3 3 3 : *.#X1X6X6X1X1X1X1X1X1X6Xo 1XyX1X1X1X1X% qX1X1X% 6X1X1X% &X1X1X",
"&X% 1X1X1X1XqX% 1X1X1X% % % qX#X`  .: 3 3 3 : : : a r Q Q Q Q e i : # # : :  . . .` #X% o qXyX1X1X&X1X% qXqX1X1XqXo 1X% qXqX1X; ",
"1X1X% yX1X1X% qX1X1X1X1X1X1X1X` : 8  XT.T._.q.nX3 u J K K K K F F E i 3 t.BX6 3 6 3 ` o qXqX&X1X% % % 1X1X1X1X1X% o 1X1X% qX% 1X",
"1X1X1X1X1X1X% qX1X1X1X1XyX#X[ 3 sXq.Z.x.x.n.;.~.6 t K m V V m m m S Q 6 7.[.nXt.lXnX3 : : [  .` o 6X1X1X1X1X1X1XqX% 1X1XqXo 1X1X",
"% % % qX1X1X% 6X6XqX1X1XqX[ 8 gX!.2.D.x.g.n.;.~.6 t K m m m m m V S Q 6 7._..X2.XXK.~.i.MXq 6 : # 6X1X1X1X1X1X1XqX% 1X1X% qX1X1X",
"6X6XqX% yX1X% o % % 1X1X8X3 !.K.T.<.n.k.x.n.;.~.6 t K m m v m m V S Q 6 7.T.T.%.n.n.XX>.OX].f.sX:  .#X1X1X1X1X1X&XqX% 1XqXqX1X1X",
"qXqXqX% % % yX1X1X1X% 8X# u.T.Z.K.%.n.z.x.n.;.~.6 t K m m m m m m Y Q 6 7.Q.T.%.n.n.XX<.D.Z.2.lXnX6  .1X1XyX1X1XqX% 1X1X1XyX&X1X",
"qX% qX% 6XqX1X1X1X1XqX# 3 e.XXn.K.%.n.z.x.n.;.~.6 T K m m m m m m K Q 6 7.T.T.%.n.n.XX%.n.n.;.]. Xf.3 [ #X1X1X% % % qX1X1X1X1X% ",
"o 6X% 1X1X1X1X1X1X1XqX: pX2.D.n.K.%.n.x.x.n.;.~.6 T K V m m m m V K Q 6 7.T.T.#.n.n.XX%.n.n.;.].].7.lX8 [ qX% % qXqX% o 6Xo % 1X",
"% qX1X1X1X1X1X1X1X#X[ 3 lX<.n.n.K.%.n.x.x.n.;.~.6 T K V m m m m V K Q 6 7.T.T.#.n.n.XX%.n.n.;.T.T.>.K.!.3 o #XqX1X1XqXo o qX1X1X",
"1X1X1X1Xo &X1X1XqX[ 8 lX_.<.n.n.K.%.n.x.x.n.;.~.6 T K m m m m m m K Q 6 7.T.T.%.n.n.XX%.n.n.;.T.T.<.Z.T.u.# #X1X1X1X1X1X1X1X1X% ",
"1X&X1X% 1X% 1XqXqX: lXK.T.<.n.n.K.<.n.x.x.n.;.~.6 t K m m m m m m S Q 6 7.T.T.%.n.n.XX%.n.n.;.T.T.%.n.XXi.3 ` 1X1X1XyX1X1X1X% 1X",
"qXqXqX% 1X1X% % qX: _.Z.K.<.n.n.K.<.n.x.x.n.;.~.6 t K m m m m m m S Q 6 7.T.T.%.n.n.OX<.n.n.;.T.T.%.n.D.2.pX: qX1X1X1X&XqXqX% 1X",
"qX% % qX1X1X1XqXo : T.n.K.%.n.n.K.<.n.x.x.n.;.~.6 t K m m m m m m S Q 6 7.T.T.;.n.n.OX<.n.n.;.T.L.%.n.k.<.nX: qX1X1X1X1XqX% 1X1X",
"% qX&X&X1X1X1X1X6X3 T.n.K.<.n.n.K.<.n.x.x.n.;.~.6 t K m m m m m U S Q 6 7.].T.;.n.n.XX<.n.n.;.T.T.%.n.n.<.cX: 6X6XqXqXqX% qX1X1X",
"qXqX&X&XyX1X1X1X6X3 T.n.K.%.n.n.K.%.n.x.x.n.;.~.6 t K m m m m m m K Q 6 7.T.T.;.n.n.OX<.n.n.;.T.T.%.n.n.<.nX: o o % % % % 1X1X1X",
"o qX1X1XqXqX% % o : T.n.T.<.n.n.K.%.n.x.x.n.;.~.6 t K m m m m m m K Q 6 7.T.T.;.n.n.XX%.n.n.;.T.T.%.n.n.<.nX: 1XyX1X% qX1X1X1X3X",
"qX% 1X1X% o qXqX6X: T.n.K.<.n.n.K.%.n.x.x.n.;.~.6 t K m m m m m m K Q 6 7.T.T.%.n.n.XX%.n.n.;.T.T.%.n.n.<.nX: 1X1X1X&X% 1X1X1X1X",
"1X1X% qX% qX1XqX6X3 T.n.K.%.n.n.K.%.n.x.x.n.;.~.6 t K m m m m m m K Q 6 7.T.T.%.n.n.XX%.n.n.;.T.T.%.n.n.<.nX: qX1X1X1X1X% qXqXqX",
"1X1XqX% qXqX1X&X6X3 T.n.K.%.n.n.K.%.n.x.x.n.;.~.6 t K m m m m m m S Q 6 7.T.T.%.n.n.XX%.n.n.;.T.L.%.n.h.<.nX: qX1XyX3X1X% qX% % ",
"1X1XqX% qXqX% % o : T.n.XX%.n.n.K.%.n.x.x.n.;.~.6 t K m m m m m m S Q 6 7.T.T.%.n.n.OX<.n.n.;.T.T.%.n.n.<.nX: &X1X1X&X1X1X1X% qX",
"1X1XqX% qX% qXqX6X: T.n.XX%.n.n.K.%.n.x.x.n.;.~.6 t K m m m m m m Y Q 6 7.T.T.%.n.n.OX%.n.n.;.T.T.@.h.n.<.lX3 ` #X1X1X1X1X1X% qX",
"1X1X&X% 1X1X1XqX6X3 ].n.K.%.n.n.K.%.n.x.x.n.;.~.6 t K m m m m m U Y Q 6 7.Q.T.%.n.n.OX<.n.n.;.T.T.%.n.n.<.~.VX3 # % qXqXqX% 1X1X",
"1X1X&X% 1X1X1XqX6X3 T.n.K.%.n.n.K.%.n.x.x.n.;.~.6 t K m m m m m U S T 8 7.T.T.%.n.n.XX<.n.n.;.T.T.%.n.n.<.[.MX6 [ qX% % % qX1X1X",
"qXqXqX% qXqX% % o : T.n.K.%.h.n.K.%.n.x.x.n.;.~.6 t K m m m m m m S E 8 7.T.T.%.n.n.XX%.n.n.;.T.{.%.n.n.<.[.MX6  .&X1X% qXqX1X1X",
"% qXqX% % o &XqXqX: T.n.K.%.n.n.K.%.n.x.x.n.;.~.6 t K m m m m m m S 8 hX7.T.T.%.n.n.XX%.n.n.;.T.T.%.n.k.<.~.BX3  .1X1X1X% qX1X&X",
"qXqX1X1XqX% 1XqX6X3 T.k.K.%.n.n.K.%.n.x.x.n.;.~.6 t K m m m m m m S q hX7.T.].%.n.n.XX%.n.n.;.T.T.%.n.n.<.lX3 ` #X1X1X1XqXo % 1X",
"% qX1X1XqXqX% qX6X3 T.n.K.%.n.n.K.%.n.x.x.n.;.~.6 t K m m m m m m S q lX7.T.T.%.n.n.XX%.n.n.;.T.T.%.n.n.%.nX: qX1X1X1X1XqXo 1X1X",
"qX% 1X1X&X&X% qX6X3 T.n.K.%.n.n.K.%.n.x.x.n.;.~.6 t K m m m m m m S q lX7.T.T.%.n.n.OX<.n.n.;.T.T.%.n.n.%.hX: qX1X1X1X&XqXqX1X1X",
"qXqX% yXqX&X% qX6X3 T.n.K.%.n.n.K.%.n.x.x.n.;.~.6 t K m m m m m m S q lX7.T.T.%.n.n.OX<.n.n.;.T.T.%.n.D.2.pX: qX1X1X1X% % qX&X&X",
"1X1X% qX&X&X% qX@X3 T.n.K.%.n.n.K.%.n.x.x.n.;.~.6 t K m m m m m U S q gX7.T.T.%.n.n.XX<.n.n.;.T.T.%.n.XXf.3 ` 1XqXqX% 1XqX% &XqX",
"1X1X% qXqXqX% yX#X3 T.n.K.%.n.n.K.%.n.x.x.n.;.~.6 t K m m m m m m S q lX7.T.T.%.n.n.OX<.n.n.;.T.T.<.n.XXy.: ` 1XqX% 1X1XqXqX% % ",
"qX% 1X% % % 1X#X[ 6 T.n.K.%.n.n.K.%.n.x.x.n.;.~.6 t F m V V b v m S q MX7.T.T.%.n.n.XX%.n.n.;.].T.%.n.Z.i.3  .1XqX% % qX1X&X&X&X",
"% 1X1X1XqXqX% ` : BXXXn.K.%.n.n.K.%.n.x.x.n.;.~.6 t K m V V v m m S q MXw.T.T.%.n.n.XX%.n.n.;.T.T.%.n.Z.7.sX3 2X#XqXqX% 1X1XqX&X",
"1X1X1X1XqXqXqX# 3 lXXXn.K.%.n.n.K.%.n.x.x.n.;. X6 t K m m m m m m S q MXw.T.T.%.n.n.XX%.n.n.<.].{.%.n.n.>.lXsX3  .1X1X1X% qX1X1X",
"1X1X1X1X&X&XqX# 6 ~.Z.n.K.<.n.n.K.%.n.x.x.n.l j q E S U m v m m m S q nXw.T.T.%.n.n.XX%.n.n.<.T.T.%.n.n.<.[.MX6  .1X1X1X% 6X1X1X",
"1X% 1X1X&X&X1X .6 ~.Z.n.K.<.n.n.K.%.n.x.n.D.x g n L S m m m V V m S Q 8 7.T.T.%.n.n.XX%.n.n.;.T.T.<.h.n.<.[.MX6  .1X1X1X% 6X1X1X",
"qXqX% 1XqXqXyX .6 ~.Z.n.K.%.n.h.K.<.h.x.H.s ~ +.d P V m m m V V m S Q 6 7.T.T.%.n.n.XX%.n.n.;.T.T.%.n.n.<.[.MX6  .1X1XqXo 6X1X1X",
"6X6X% % % o % # 6 ~.Z.n.K.%.n.n.K.-.n.x.x.j.z +.d P V m V V m m m S Q 6 7.T.T.%.n.n.XX%.n.n.;.T.L.%.n.n.-.[.MX6 # % % % o o 1X&X",
"% % qXqXqX6XqX[ 6 ~.Z.n.K.%.n.n.K.<.n.x.x.H.k +.o.L S m V V m m m S Q 6 7.T.T.%.n.n.XX%.n.n.;.T.T.%.n.n.<.[.MX6 [ &XqXqX6X% qX1X",
"1XyX1X1X1X1X1X .6 ~.Z.n.T.%.n.n.K.<.n.x.x.H.f j 8 E S m m m m m m S Q 6 7.T.T.%.n.n.OX<.n.n.;.T.T.%.n.n.<.[.MX6  .1X&XqX% qX% % ",
"1X1X1X1X1X1X1X .6 ~.Z.n.T.<.n.n.K.%.n.x.x.n.;. X6 t I m m m m m m Y Q 6 7.T.T.%.n.n.XX<.n.n.;.T.T.%.n.n.<.[.MX6 [ 1X1X% qXqXqXqX",
"yX1X1X1XqXqX% # 6 ~.Z.n.K.%.n.n.K.%.n.x.x.n.;..X6 t I v m m v v m S Q 6 7.T.T.%.n.n.XX<.n.n.;.T.T.%.n.n.<.[.MX6 # % 1X1X1X1X1X#X",
"&X1X1X&XqX% qX .6 ~.Z.n.K.%.n.n.K.%.n.x.x.n.;.~.6 y F m m m v v m S Q 6 7.T.T.%.n.n.OX<.n.n.;.T.T.%.n.n.<.[.MX6  .qX1X1X1X1X1Xo ",
"% &X% % % qXyX .6 ~.Z.n.K.%.n.n.K.%.n.x.x.n.;.~.6 3 F m m m m m m S Q 6 7.T.T.%.n.n.XX#.n.n.;.T.T.%.n.n.<.[.MX6  .1X1X1XqXqX% 1X",
"qX% qXqXqX&X1X .6 ~.Z.n.K.%.n.n.K.%.n.x.x.n.<.~.dX3 J m m m m m m S Q 8 7.T.T.%.n.n.XX#.n.n.;.T.T.%.n.n.<. XMX6  .1X1XqXqX% 1X1X",
"1XqX% qX&X1X1X .6 ~.Z.n.K.%.n.n.K.<.n.x.z.n.%.~.3 3 J m v m m m m S Q 8 7.].].<.n.n.XX%.n.n.;.T.T.%.n.n.<. XMX6  .qXqXqX% o % % ",
"1X1XqX% &X&X1X .6 ~.Z.n.K.%.n.n.K.%.n.x.z.n.#.~.3 i F m m m m m m S Q 8 7.].].<.n.n.XX%.n.n.;.T.T.%.n.n.<. XMX6  .% % % qXqXqXqX",
"1X1X1X% % % % # 6 ~.Z.n.K.<.n.n.K.%.n.x.x.n.%.~.6 e F m m m m m m S Q 8 7.T.T.%.n.n.XX%.n.n.;.T.T.%.n.n.;. XMX6 # qX&X&X1XyX&X&X",
"1X1X1X1Xo 6XqX .6 ~.Z.n.T.<.n.n.K.%.n.x.x.n.;.~.6 t K m m m m m m S Q 6 7.T.T.%.n.n.XX%.n.n.;.].T.%.n.n.;._.MX6  .qX1X1X1X1X&X&X",
"1X1X1X1X% 6X&X^ 6 ~.Z.n.K.%.n.n.K.%.n.x.x.n.;.~.6 t K m m m m m m S Q 6 7.T.T.%.n.n.OX<.n.n.;.T.T.%.n.n.<._.MX8  .1X1XyX1X1X1X1X",
"1X1X1X1X% qX1X .6 ~.Z.n.K.%.n.n.K.%.n.x.x.n.;.~.6 t K m m m m m m S Q 6 7.T.T.%.n.n.OX<.n.n.;.].T.%.n.n.<.[.MX8  .1X1X1X1X&X1X1X",
"qXqXqXqX% qX1X .6 ~.Z.n.K.%.n.n.K.%.n.x.x.n.;.~.6 t K m m m m m m S Q 6 7.Q.T.%.n.n.XX<.n.n.;.T.T.%.n.n.<.[.MX6 # qX1X1XqXqXqX% ",
"% % % % qXqXyX[ 6 ~.Z.n.K.%.n.n.K.%.n.x.x.n.;.~.6 t K m m m m m m S Q 6 7.Q.T.%.n.n.XX<.n.n.;.T.T.%.n.n.<.[.MX6 [ % 1X1X% % % qX",
"1X1XqX% 1X1XqX[ 6 ~.Z.n.K.%.n.n.K.%.n.x.x.n.;.~.6 t K m m m m m m S Q 6 7.T.T.%.n.n.XX%.n.n.;.T.T.%.n.n.<.[.MX6  .1X% % 1X1X1X1X",
"1X1XqX% qXqX% # 6 ~.Z.n.K.%.n.n.K.%.n.x.x.n.;.~.6 t K m m m m m m S Q 6 7.Q.T.%.n.n.XX%.n.n.;.T.T.%.n.n.<.[.MX6  .1X&X% 1X1X1X1X",
"3X1X1X% % % qX .6 ~.Z.n.K.%.n.n.K.%.n.x.x.n.;.~.6 t K m m m m m m S Q 6 7.T.T.%.n.n.XX%.n.n.;.T.T.%.n.n.<.[.MX6  .&X1X1X% #X1X#X",
"&X1X1XqXo 6X&X .6 ~.Z.n.K.%.n.n.K.%.n.x.x.n.;.~.6 t K m m m m m m S Q 6 7.T.T.%.n.n.XX%.n.n.;.T.T.%.n.n.<.[.MX6  .&X1X&X6Xo o #X",
"1X&X1X1Xo 6XyX^ 6 ~.Z.n.K.%.n.n.K.%.n.x.x.n.;.~.6 t K m m m m m m S Q 6 7.Q.T.%.n.n.XX%.n.n.;.T.T.%.n.n.<.[.MX6  .1X1X1X6X6X% % ",
"1X1X1XqX% qX1X .6 ~.Z.n.K.%.n.n.K.%.n.x.x.n.;.~.6 t K m m m m m m S Q 6 7.T.T.%.n.n.XX%.n.n.;.T.T.%.n.n.<.[.MX6  .1X1X1XqX% qXqX",
"o 6XqXqX% qX1X .6 ~.Z.n.K.<.n.n.K.%.n.x.x.n.;.~.6 t K m m m m m m S Q 6 7.T.T.%.n.n.OX<.n.n.;.T.T.%.n.n.<.[.MX8  .1X1X1X% qXyX1X",
"6Xo % % qXqX1X .6 ~.Z.n.K.%.n.n.K.%.n.x.x.n.;.~.6 t K m m m m m m S Q 6 7.T.T.%.n.n.OX%.n.n.;.T.T.%.n.n.<.[.MX8  .1X1X% 1XqX1X3X",
"1XqXqX% 1X1X1X .6 ~.Z.n.K.<.n.n.K.%.n.x.x.n.;.~.6 t K m m m m m m S Q 6 7.T.T.%.n.n.OX<.n.n.;.T.T.%.n.n.<.[.MX6  .1XyX% 1X1X1X1X",
"1X1XqX% 1X1X1X .6 ~.Z.n.T.<.n.n.K.%.n.x.x.n.;.~.6 t K m m m m m m S Q 6 7.T.T.%.n.n.XX<.n.n.;.T.T.%.n.n.;.[.MX6  .1X% qX1X1X1X1X"
};
