/* XPM */
static char *c3f677b8d2544937d13ad7fa7444c651nUkcMwIXa1epfRXN[] = {
/* columns rows colors chars-per-pixel */
"64 64 210 2 ",
"   c #010000",
".  c #010002",
"X  c #030002",
"o  c #040000",
"O  c #060000",
"+  c #070000",
"@  c #000004",
"#  c #010004",
"$  c #010005",
"%  c #030004",
"&  c #020005",
"*  c #040004",
"=  c #080000",
"-  c #090000",
";  c #0A0000",
":  c #0B0000",
">  c #0D0000",
",  c #0E0000",
"<  c #0F0000",
"1  c #0E0100",
"2  c #110000",
"3  c #120000",
"4  c #140000",
"5  c #7F6F4B",
"6  c #7D6E4D",
"7  c #7F7047",
"8  c #7E6F50",
"9  c #7D6F52",
"0  c #7E6F52",
"q  c #7F7051",
"w  c #8B5F2E",
"e  c #87622D",
"r  c #86632D",
"t  c #87622E",
"y  c #89612E",
"u  c #8B6F2E",
"i  c #8A6E2F",
"p  c #8C6E2E",
"a  c #8D6E2E",
"s  c #906C2E",
"d  c #926C2E",
"f  c #8C702F",
"g  c #896130",
"h  c #8A6D31",
"j  c #8B6F30",
"k  c #8B6C33",
"l  c #896F32",
"z  c #8B6E32",
"x  c #8D6D30",
"c  c #8F6D30",
"v  c #8C6E30",
"b  c #8D6F31",
"n  c #8D6D32",
"m  c #8C6C33",
"M  c #8C6E32",
"N  c #896F34",
"B  c #886E35",
"V  c #8B6E34",
"C  c #886F36",
"Z  c #896E37",
"A  c #886F37",
"S  c #8B6E36",
"D  c #8C6D34",
"F  c #8D6D34",
"G  c #8F6C34",
"H  c #8D6E35",
"J  c #8C6D36",
"K  c #8F6C36",
"L  c #866F39",
"P  c #866F3B",
"I  c #856D3D",
"U  c #856F3D",
"Y  c #856F3E",
"T  c #866E3E",
"R  c #896E39",
"E  c #886F39",
"W  c #886E3B",
"Q  c #906C30",
"!  c #867037",
"~  c #897030",
"^  c #8C7031",
"/  c #84703E",
"(  c #86703E",
")  c #846F40",
"_  c #856F40",
"`  c #866E40",
"'  c #846F42",
"]  c #806E46",
"[  c #816F47",
"{  c #826F47",
"}  c #846F44",
"|  c #816F49",
" . c #827042",
".. c #857041",
"X. c #817045",
"o. c #837048",
"O. c #877D7B",
"+. c #877D7C",
"@. c #877F7C",
"#. c #877F7D",
"$. c #847E7E",
"%. c #857F7F",
"&. c #877E7F",
"*. c #8A7F79",
"=. c #887D7B",
"-. c #887F7A",
";. c #897D7D",
":. c #8B7D7D",
">. c #887E7C",
",. c #897E7C",
"<. c #887E7D",
"1. c #897F7D",
"2. c #887E7F",
"3. c #B8935F",
"4. c #BB925E",
"5. c #BC905F",
"6. c #878076",
"7. c #87807A",
"8. c #82817F",
"9. c #85807C",
"0. c #85807D",
"q. c #B79160",
"w. c #B59365",
"e. c #B59366",
"r. c #B99160",
"t. c #B89261",
"y. c #BA9261",
"u. c #BB9063",
"i. c #BA9163",
"p. c #B99362",
"a. c #B89263",
"s. c #B49368",
"d. c #B1946C",
"f. c #AD9571",
"g. c #AD9475",
"h. c #AC9576",
"j. c #A99678",
"k. c #D3A267",
"l. c #D4A265",
"z. c #D4A267",
"x. c #D1A368",
"c. c #D3A268",
"v. c #D3A16C",
"b. c #D3A16E",
"n. c #CAA570",
"m. c #CAA571",
"M. c #CCA470",
"N. c #CCA377",
"B. c #C5A57F",
"V. c #C6A47E",
"C. c #C7A47E",
"Z. c #C6A47F",
"A. c #C9A279",
"S. c #CAA37A",
"D. c #CCA278",
"F. c #CDA278",
"G. c #CCA27A",
"H. c #C9A478",
"J. c #C9A47A",
"K. c #CBA47B",
"L. c #CAA37C",
"P. c #C9A37E",
"I. c #D1A170",
"U. c #817F82",
"Y. c #837E82",
"T. c #857F81",
"R. c #847F83",
"E. c #857F83",
"W. c #817F84",
"Q. c #837E84",
"!. c #837E85",
"~. c #827F86",
"^. c #857E85",
"/. c #847F85",
"(. c #857E86",
"). c #847F86",
"_. c #867F86",
"`. c #897F80",
"'. c #847E88",
"]. c #818183",
"[. c #828083",
"{. c #848081",
"}. c #818085",
"|. c #838184",
" X c #828085",
".X c #838186",
"XX c #838087",
"oX c #858084",
"OX c #858086",
"+X c #858087",
"@X c #A79780",
"#X c #BFA58A",
"$X c #BEA48B",
"%X c #BFA58C",
"&X c #BEA68E",
"*X c #C4A380",
"=X c #C7A381",
"-X c #C6A383",
";X c #C2A583",
":X c #C3A583",
">X c #C5A481",
",X c #C5A483",
"<X c #C7A582",
"1X c #C3A485",
"2X c #C2A585",
"3X c #C3A487",
"4X c #C5A485",
"5X c #C0A58A",
"6X c #C2A48A",
"7X c #C1A58D",
/* pixels */
". [.).).).).#  X).).).).[.[.# # ).OX X X[.U. X8.+ = > > > > > > = 6.{.W.[.[.OX).).).).). X. ).).).).).).#  X).).# [.).).# W.).).",
"W.# ).).).). X# ).).).# # #  XE.@.@.+ + + + + = = 8 5 { | { { 5 8 = = = = + 7.@.@.0.OX# #  X).).).).).#  XW.OXW. X. ).#  X X).# ",
").).* ).).).#  XW.W.).).).). X0.= = > | } _ .._ T L L C R C C R L T _ _ _ o.> = = = 0.#  X X).).# # # ).).).).).# . ).).#  X# ).",
").).).).).).#  X XW.).).).E.@.= 8 X.( L C j j j j j j j j j j j b b j j b C _ 7 | 6 = = + 0.@.@.. [.).).).).).). X# ).). X. ).).",
"# # # ).).).# [.[. XW.). X@.= { T C C C j j i j i i j j i i j j j j j j j j C ! R L T { > = = = + [.).).).).).). X# ).).#  X).).",
"[.[. X# OX).# # # # OXE.0.= { ! C j j j j j j j i f j j i i j j j j i j j j j j j j j C  .{ | q = 7.E.).).).).OXW. X# ). X X).).",
").). X# . . OX).OX).# 0.= 8 ( j j j i j i j j j j j j j j i j j j j j j j j j j i i ^ j C C R T { > @.W.'.).).). X# ).).).OXW.).",
").#  X# [. X).'.).). X+ >  .C j j j j j j j j j j j j j j j j j j j j j j j j j i i j j j j j C L o.= @.E.).).# # #  X).).).).# ",
". [.# ).).).'.'.).). X+ { C j b j j j j b b j j j j j j b b j j j j j j b b j j j j j j j j j j C L { > 7. X# #  X X# . ).# # ).",
"#  X).).).).'.'.).E.1.> T j b b j j j j b b j j j j j j b b j j j j j j b b j j j j j j j j j j j C L | = + E. X).). X. . E.).).",
").).).).# W.).'.W.1.2 ;XR j j ^ j j ~ ~ j j j j j j j j j j j j j j j j j j j j j j j j j j b b j j C _ @X= E.).W.W.).).).). X# ",
").W.).#  X# ).W. X= 6Xe.D j j ^ j j ~ ~ j j j j j j j j j j j j j j j j j j j j j j j j j j b b ^ j b R h.> @.W.W.W.OX).).).#  X",
" X X X# ).).# #  X= 3Xr.D j j j i i j j j j j j j j j j j j j j i i j j j j j j j j j j j j j j i i j C s.$X+  XW.).).W. X X# ).",
"[.. #  X).). X X# = 4Xr.D j j j i i j j j j j j j j j j j j j j i i j j j j j j j j j j j j j j i i j D r.3X=  X X).).). X# ).).",
"#  X).).).).). X X= 4Xr.D j ^ j j j j j j j j j j j j j j j j j j j j j j j j j j j j j j j j j j j j D r.3X= [.[. X X X#  X).).",
" X X).W.OX).). X[.= 4Xr.D j j j j j j j j j j j j j j j j j j j j j j j j j j j j j j j j j j j j j ^ j r.3X= . . # # # # ).).).",
". ).).). X X# # . = 4Xr.D j j j j j j j j j j j j j j j j j j j j j j j j j j j j j j j j j j j j j j D r.3X=  XOX).#  X).).).).",
").# ).).# .  X X[.= 4Xr.D j j j j j j j j j j j j j j j j j j j j j j j j j j j j j j j j j j j j j j D r.3X=  X).). X# ).).).).",
").).#  X#  X). X[.= 4Xr.D i j j j j j j j j j j j j j j j j j j j j j j j j j j j j j j j j j j j j j D r.3X=  X).).).).#  X X X",
").). X#  X X).W.[.= 4Xr.D j j j j j j j j j j j j j j j j j j j j j j j j j j j j j j j j j j j j j j j r.3X=  X).OX).).#  X# # ",
").). X#  X X# # . = 4Xr.D j j j j j j j j j j j j j j j j j j j j j j j j j j j j j j j j j j j ^ j j D r.3X= W.).).W.).).).# [.",
").). X#  X#  X X[.= 4Xr.D j j j j j j j j j j j j j j j j j j j j j j j j j j j j j j j j j j j j i j D r.,X> @.E.).).).).).# [.",
").).W.# ).).). X[.= 4Xr.D i j j j j j j j j j j j j j j j j j j j j j j j j j j j j j j j j j j j j j D r.Z.7X> + #  X X X# ).).",
").).W.# ).).). X[.= 4Xr.D j j j j j j j j j j j j j j j j j j j j j j j j j j j j j j j j j j j j j j D r.K.4X2 *. X# # #  X).).",
" X X X#  X X# # . = 4Xr.D j i j j j j j j j j j j j j j j j j j j j j j j j j j j j j j j j j j ^ j j D r.K.4X2 1.W.).#  X X).).",
"#  X X# # . W. X X= 4Xr.D j j ^ j j j j j j j j j j j j j j j j j j j j j j j j j j j j j j j j j j j D r.Z.6X> 1.).).).#  X).W.",
" X X).). X# ). X[.= 4Xq.D j j j j j j j j j j j j j j j j j j j j j j j j j j j j j j j j j j j j j j D r.,X> @.E.).).). X. # ).",
"#  X).). X X# ).[.= ,Xr.D j j j j j j j j j j j j j j j j j j j j j j j j j j j j j j j j j j j j j j D r.3X=  X).).).). X. ).).",
"[.. ).).W.W.#  X[.= ,Xr.D j ~ ~ j j j j j j j j j j j j j j j j j j j j j j j j j j j j j j j j j j j D r.3X=  X).).).W. X X).).",
" X X# OX XW.#  X[.= ,Xr.D j ~ ~ j j j j j j j j j j j j j j j j j j j j j j j j j j j j j j j j j j j C s.$X=  X).).).# #  X X X",
").).#  X).).#  XU.= ,Xr.D ~ j j j j j j j j j j j j j j j j j j j j j j j j j j j j j j j j j j j j j R h.> @.). X X# ). X# W. X",
").).#  X).).# OX@.> -Xr.D ~ j j j j j j j j j j j j j j j j j j j j j j j j j j j j j j j j j j j ^ j R j.= @.). X# ).). X X# # ",
" X# ).# # . E.@.*.2 -Xr.D j j j j j j j j j j j j j j j j j j j j j j j j j j j j j j j j j j j ^ j i C f.> @.). X# #  X).).).W.",
"#  X).).).E.. @.> &XP.r.D b j j j j j j j j j j j j j j j j j j j j j j j j j j j j j j j j j j j j i C d.&X> `.E. X X#  X).OX).",
").).).).).).).+ > 3XD.w e b b j j j j j j j j j j j j j j j j j j j j j j j j j j j j j j j j j ^ j j j e.,X&X> 1.).). X#  X).).",
").).).).).).).+ 2 -XD.5.y D b j j j j j j j j j j j j j j j j j j j j j j j j j j j j j j j j j j j j D r.K.4X2 1.).).).# [.).).",
" X# ).).).).).1.2 ,XD.r.y e b j j j j j j j j j j j j j j j j j j j j j j j j j j j j j j j j j j ^ j D r.K.4X2 1.).).).# [.).).",
" X X# ).).).OX1.2 ,XK.r.g D b j j j j j j j j j j j j j j j j j j j j j j j j j j j j j j j j j j j j D r.K.4X2 1.).). X. [.).).",
"[.[.# # # # # + 2 ;XK.r.e D b j j j j j j j j j j j j j j j j j j j j j j j j j j j j j j j j j j j j D r.K.4X2 + # # # . . ).W.",
"# #  X X X X X1.2 ,XN.5.e D b j j j j j j j j j j j j j j j j j j j j j j j j j j j j j j j j j j j j D r.K.4X2 *.W. X X[.# W.).",
").OX).).).).).1.2 Z.I.c.Q b j j j j j j j j j j j j j j j j j j j j j j j j j j j j j j j j j j j j j D r.K.4X2 1.).W.).#  X# # ",
").).).).).).).1.2 Z.b.l.s j j j j j j j j j j j j j j j j j j j j j j j j j j j j j j j j j j j j j j D r.K.4X2 *.).).# ).). X X",
"OX).).). X X# + 2 Z.b.l.s i j j j j j j j j j j j j j j j j j j j j j j j j j j j j j j j j j j j j j D r.K.4X2 + #  XW.).).).E.",
"W.).).). X#  X1.2 Z.b.k.s i j j j j j j j j j j j j j j j j j j j j j j j j j j j j j j j j j j j j j D r.K.4X2 *. XW.W.).).).. ",
". U.# # #  XOX1.2 Z.b.k.s j j j j j j j j j j j j j j j j j j j j j j j j j j j j j j j j j j j b b j D r.K.4X2 1.).).).W. X# ).",
" X.  X X X X).1.2 Z.b.k.s j j j j j j j j j j j j j j j j j j j j j j j j j j j j j j j j j j j b b j D r.K.4X2 1.).). X X# ).).",
").).# [.).).).1.2 Z.b.k.s j ~ ~ j j j j j j j j j j j j j j j j j j j j j j j j j j j j j j j j j j j D r.K.4X2 1. X X X# . # # ",
").). X.  X).).1.2 Z.b.l.s j ~ ~ j j j j j j j j j j j j j j j j j j j j j j j j j j j j j j j j j j j D r.K.4X2 1.# # #  X X X X",
").). X# . . # + 2 Z.b.l.s j j j j j j j j j j j j j j j j j j j j j j j j j j j j j j j j j j j j j j D r.K.4X2 +  XW.W.).OX).).",
").).). X. [. X1.2 Z.I.c.b j j j j j j j j j j j j j j j j j j j j j j j j j j j j j j j j j j j j j j D r.K.4X2 1. X).).).).).).",
").).).).. [.W.O.2 ,XN.4.b j j j j j j j j j j j j j j j j j j j j j j j j j j j j j j j j j j j j j j D r.K.4X2 1.).).OX).).).).",
").).).).#  X).1.2 ;XK.r.D j j j j j j j j j j j j j j j j j j j j j j j j j j j j j j j j j j j j j j D r.K.4X2 1.).).).).W.).).",
" X X).).#  X).1.2 ;XS.r.D j j j j j j j j j j j j j j j j j j j j j j j j j j j j j j j j j j j i i j D r.K.4X2 +  X).).[.[. X# ",
"# # # #  X XOX1.2 ;XS.r.D j j j j j j j j j j j j j j j j j j j j j j j j j j j j j j j j j j j i i j D r.K.4X2 *.# ).).. . #  X",
").). X# ).). X1.2 ;XS.q.D j j j j j j j j j j j j j j j j j j j j j j j j j j j j j j j j j j j j j j D r.K.4X2 1.).# # ).).).).",
").). X#  X X# + 2 ;XS.q.b j ^ j j j j j j j j j j j j j j j j j j j j j j j j j j j j j j j j j j j j b 4.K.,X2 1.).W.# ).).).).",
").).).# # #  X1.2 ;XS.r.D j j j j j j j j j j j j j j j j j j j j j j j j j j j j j j j j j j j i i j b Q n.,X2 1.W.).).#  X).).",
"W.).).).. [.).1.2 ;XS.r.D j j j j j j j j j j j j j j j j j j j j j j j j j j j j j j j j j j j i i j b s n.Z.2 1.W.).W. X. # ).",
").W.).).. [.OXO.2 ;XS.r.D j b b j j j j j j j j j j j j j j j j j j j j j j j j j j j j j j j j b b j b s M.Z.2 1.).).). X X# # ",
").).).).#  X).1.2 ;XS.r.D j b b j j j j j j j j j j j j j j j j j j j j j j j j j j j j j j j j b j j b s M.Z.2 1.).).). X#  X X",
"#  X X X#  X).1.2 ;XS.r.D ~ j j j j j j j j j j j j j j j j j j j j j j j j j j j j j j j j j j j j j b s M.Z.4 1.).).).#  XOX).",
" X# # #  X X).1.2 ;XS.r.D ~ j j j j j j j j j j j j j j j j j j j j j j j j j j j j j j j j j j j j ~ a s M.Z.4 1.).).#  X X).OX",
").). X# ).).).1.2 ;XS.r.D j j j j j j j j j j j j j j j j j j j j j j j j j j j j j j j j j j j ~ ~ j a s M.Z.2 1.).OX# ).).).).",
").). X# ).).).1.2 ;XP.r.D j j j j j j j j j j j j j j j j j j j j j j j j j j j j j j j j j j j ~ ~ j a s M.Z.2 1.).#  X).).).)."
};
