/* XPM */
static char *_a9a5c63d3d64314f555789617fcb75aKtoY34aLmp0Ibc4u[] = {
/* columns rows colors chars-per-pixel */
"64 64 153 2 ",
"   c #010102",
".  c #0C0003",
"X  c #000A00",
"o  c #11000B",
"O  c #00021A",
"+  c #57641E",
"@  c #41711B",
"#  c #575E3D",
"$  c #5E5D3C",
"%  c #60593D",
"&  c #446F20",
"*  c #4E6927",
"=  c #4C672C",
"-  c #4B682E",
";  c #526725",
":  c #52652C",
">  c #526828",
",  c #576527",
"<  c #447120",
"1  c #4D6634",
"2  c #4B6831",
"3  c #4F643A",
"4  c #526435",
"5  c #586136",
"6  c #51633D",
"7  c #58603B",
"8  c #5D713D",
"9  c #646F35",
"0  c #545F46",
"q  c #5C5C44",
"w  c #555D4B",
"e  c #585C4E",
"r  c #565C50",
"t  c #585B50",
"y  c #714F4E",
"u  c #6C5345",
"i  c #615944",
"p  c #63564E",
"a  c #615849",
"s  c #665450",
"d  c #4C6443",
"f  c #4E614C",
"g  c #526142",
"h  c #5D6F46",
"j  c #546048",
"k  c #5E6E4B",
"l  c #5B7143",
"z  c #5D7149",
"x  c #5E6C51",
"c  c #646C44",
"v  c #626C4C",
"b  c #616B53",
"n  c #64675C",
"m  c #62695A",
"M  c #5B667C",
"N  c #656465",
"B  c #686367",
"V  c #66636A",
"C  c #686369",
"Z  c #626472",
"A  c #877F7C",
"S  c #8B7D7A",
"D  c #907A7C",
"F  c #778C64",
"G  c #798A66",
"H  c #7C876F",
"J  c #7A896B",
"K  c #7D8574",
"L  c #7E8479",
"P  c #88884A",
"I  c #8D974E",
"U  c #8C984C",
"Y  c #869A56",
"T  c #899953",
"R  c #89975D",
"E  c #849A5A",
"W  c #88985A",
"Q  c #869761",
"!  c #889762",
"~  c #839964",
"^  c #949E69",
"/  c #818475",
"(  c #81827C",
")  c #A09672",
"_  c #87A660",
"`  c #CDC07A",
"'  c #566584",
"]  c #7E7F93",
"[  c #847F86",
"{  c #897D84",
"}  c #837E89",
"|  c #8B7A89",
" . c #92768E",
".. c #9D718D",
"X. c #9E6F93",
"o. c #7E808E",
"O. c #7B8195",
"+. c #77819D",
"@. c #7A809A",
"#. c #7382A6",
"$. c #828085",
"%. c #808089",
"&. c #9F9F9D",
"*. c #AC9D84",
"=. c #AD9A8D",
"-. c #B39980",
";. c #B5968B",
":. c #B8948C",
">. c #AE9894",
",. c #A09E9F",
"<. c #B19696",
"1. c #BA9195",
"2. c #9CB78E",
"3. c #9EA19A",
"4. c #9BA394",
"5. c #9EB592",
"6. c #9DB29B",
"7. c #A4A087",
"8. c #A0A19D",
"9. c #A1AF9E",
"0. c #9F9EA1",
"q. c #9195AA",
"w. c #8A97B2",
"e. c #8597BF",
"r. c #BE8CA7",
"t. c #A09EA1",
"y. c #A29DA3",
"u. c #A09EA3",
"i. c #A19CA3",
"p. c #A09DA4",
"a. c #A29DA4",
"s. c #A39CA4",
"d. c #A19FA4",
"f. c #A39EA5",
"g. c #A19DA2",
"h. c #B491AA",
"j. c #B392A7",
"k. c #9BAEAD",
"l. c #9DB1A3",
"z. c #9CB1AB",
"x. c #9BAFB1",
"c. c #C48C9C",
"v. c #C98A9F",
"b. c #D8B78E",
"n. c #D4BB86",
"m. c #CDBC91",
"M. c #C488B3",
"N. c #D9B1A7",
"B. c #D7E5A8",
"V. c #DEEAAA",
"C. c #E6E7A2",
"Z. c #8396C0",
"A. c #CDE3CE",
/* pixels */
"O O O O.%.        $.[           [ [ [ $.N       $.  [ [     $.      [ $.$.                    [ $.$.[ $.  N $.$.$.$.[ [ [ [     ",
"M w.' w.o.$.$.$.$.$.[ [ $.[ t.$.[ [ [ $.N       $.[ [ [ $.$.  $.$.$.  $.$.$.$.$.  $.$.        $.$.  [ $.            $.[ $.[   $.",
"M w.Z.#.] [ [ [ [ [ [ [ [ [ [ t.t.$.t.N N       $.[ [ [ [ [ [ a.[ [ $.t.t.$.    $.$.[         $.  $.[ $.          $.        [ t.",
"M +.e.#.] [ [ [ [ [ [ [ [ [ [ [ [ t.$.t.$.      [ [ [ [ [ [ [ [ a.[ a.t.t.t.$.[     [ [         $.$.[ [ $.    $.$.        $.[ a.",
"%.Z +.+.} [ $.[ } [ C [ [ [ [ [ [ [ [ [ t.      [ [ $.[ [ [ [ [ [ [ [ [ [ t.t.$.[ [ a.t.[       $.$.[ [ [ [   [ [ [ [ $.[ [ [ a.",
"%.Z q.O.V [ [ [ } [ C [ $.[ [ C [ [ C [ t.$.    $.[ [ [ [ [ [ [ C [ [ [ [ [ t.t.a.[ [ a.$.        $.[ [ [ [ [ [ [ [ [ a.[ [ a.[ ",
"@.q.o.} V [ [ [ [ [ C [ [ [ [ C [ [ C [ $.t.    $.$.$.$.[ [ } $.[ [ [ [ [ [ [ a.t.t.a.$.                    [ [ t.$.[ [ t.t.a.[ ",
"@.O.o.} $.N [ [ [ [ $.C [ C [ C [ [ [ [ $.t.            $.[ [ } [ [ [ [ } } [ a.t.t.[ $.      $.$.t.$.$.$.[   [ [ t.[ [ $.$.[ [ ",
"} o.q.] } [ [ [ $.[ [ C [ [ C [ [ [ [ [ [ t.    $.[ [ [   $.[ [ [ [ [ [ [ [ [ [ [ t.a.$.    $.[ [ [ a.$.t.[   [ [ [ a.[ [ [ [ [ ",
"[ } @.@.} [ [ [ [ [ [ [ [ [ [ [ [ [ [ [ [ [     [ [ [ [ [   [ [ [ [ [ [ [ [ [ [ $.t.a.$.      [ [ [ a.[ [ t.[   [ [ [ a.a.[ [ [ ",
"[ } @.@.} [ [ [ [ [ } } [ [ [ $.$.[ [ [ [ [   $.[ [ [ [ $.  [ [ $.$.[ [ [ [ [ [ [ [ a.$.    $.[ [ [ $.a.[ [ t.  [ [ [ [ [ [ [ [ ",
"[ } q.] } [ [ [ [ [ } } [ [ [ [ [ $.[ [ [ $.  $.[ [ [ [ [ $.          [ [ [ [ [ [ [ a.$.    $.[ $.[ [ [ a.[ $.$.[ [ [ [ [ [ [ [ ",
"[ [ } } } [ [ [ } } [ [ [ [ [ [ [ [ [ [ $.  $.$.[ [ [ [ [ $.[ [ [ [ [   $.$.[ [ [ [ [ $.    $.$.$.$.[ [ [ a.$.  [ [ [ [ [ [ $.[ ",
"[ [ [ [ [ [ $.[ [ [ [ [ [ [ [ [ [ [ [ [     [ [ [ [ [ [ [ [   [ [ [ [ [     $.[ [ [ [ $.              [ [ $.    [ [ [ [ [ [ [ [ ",
"$.$.                    $.$.$.[ $.$.[ $.  $.[ [ [ [ [ [ [ $.  [ [ [ [ [ $.    $.[ [ [                         [ [ [ [ [   [ [ [ ",
"    $.$.$.$.0.t.t.0.,.,.            [       $.a.[ [ [ t.t.  [ [ [ [ [ [ $.$.$.  $.$.                            [ [ [ [ [     [ ",
"[ [ [ t.t.t.t.t.t.,.8.3.[ [   $.$.            $.t.t.t.$.  $.[ [ [ [ $.$.$.$.$.          $.$.    $.$.$.[               $.  $.[   ",
"[ [ [ [ t.t.$.$.( ( e ( ( $.  $.$.$.$.$.$.$.$.t.      $.  $.$.[ [ [                   $.$.    $.[ a.[ [ [ $.$.  $.$.      $.$.$.",
"$.$.[ [ [ $.( ( K w w K w L $.  $.[ [ [ $.$.$.t.$.                  [ [   $.[ [ [ [ [ [ $.  [ [ t.$.[ [ [ $.$.  [ [ [ $.        ",
"  $.[ [ $.( e K H j K 0 j K (   [ a.a.a.a.t.t.0.[   $.$.$.$.$.$.$.[ a.[   t.[ [ [ [ [ [   $.[ [ t.$.[ [ [ [ $.  [ [ [ [ $.$.    ",
"  $.[ $.( w H g H 0 K w X X     [ [ [ [ [ a.a.[ t.  [ [ [ [ [ [ [ [ [ t.  $.a.[ [ [ [ [     [ a.a.[ [ [ [ [ [   [ [ [ [ [ [ [ $.",
"$.    ( e H 6 6 J j X X 6 j (   $.[ [ [ [ [ [ [ t.$.  $.[ $.[ [ [ [ a.[ $.  a.[ [ [ [ [ $.  [ a.[ [ [ [ [ [ [   [ [ [ [ [ [ [ [ ",
"[ $.[   ( K 6 6 J X 3 1 1 3 K   [ [ [ [ [ [ [ [ [ a.$.  $.$.[ [ $.t.[ [   $.a.[ [ [ [ [ $.  $.t.[ [ [ [ [ [ $.  [ [ [ [ [ [ [ [ ",
"[ [ [ $.e X X 3 g 6 4 4 4 6 g m   [ [ [ [ [ [ [ [ [ t.$.  $.[ [ t.$.[ [   $.a.[ [ [ [ [ $.$.  t.[ $.[ [ [ [   $.[ [ [ [ [ [ [ [ ",
"[ [ [ ( 0 X 6 3 F 6 7 $ i i 6 g   $.[ [ [ [ [ [ [ [ $.t.$.$.$.a.$.$.    $.$.a.[ } } [ [ [ [   $.[ [ [ [ $.  [ [ [ [ [ [ [ [ [ [ ",
"[ $.$.K g 3 6 G g q i =.;.=.7 3   $.[ [ [ [ [ [ [ [ t.                $.  $.a.[ } } [ [ $.[   $.[ [ [ [ $.  $.[ [ [ [ $.[ [     ",
"[ ( K g 6 3 X 0 a =.u :.:.u 7 g         $.$.[ [ } [ $.  [ [ [ [ $.  [ t.  $.[ [ [ [ $.[ [ [ $.  $.$.[ [   $.$.[ [ [         [ } ",
"[ ( g 3 6 X k q p <.:.N.N.;.q X ( $.  $.    [ [ } [ [   [ [ [ [ $.  [ a.$.  $.[ [ [ [ [ [ [ $.      [ [   $.[ [ [ [ $.$.$.$.[ } ",
"[ ( 0 X X x j b S <.:.N.N.:.>.  [ [ [ [ [ [   [ [ [ [   [ [ [ [   $.[ [ a.$.  $.$.$.[ $.[ [ $.  [ [               [ B [ [ [ [ [ ",
"[ ( X g 0 b g v / p u ;.:.y . | [ [ [ [ a.[ [   [ [   $.[ [ [ [   $.[ [ [ a.$.      $.[ [ [ $.  [ [ $.$.$.$.[ [   $.[ C [ [ [ [ ",
"$.  6 3 g g 1 1 J 0 # q >.<.. [ [ [ [ $.t.t.$.[         [ [ $.  [ [ [ [ [ [ a.[   $.    $.$.$.  [ [ [ [ [ a.[ [ $.  $.N $.N [ [ ",
"$.  3 1 x H 1 1 3 3 G g i p   $.[ [ [ [ $.t.a.a.$.  $.$.[ [ $.  [ [ [ [ [ [ [ [   $.t.$.  $.  $.[ $.[ [ [ [ a.[ $.  $.    [ [ [ ",
"[ ( 3 1 K K 3 2 1 6 J g 6 7   $.[ [ [ [ a.$.[ [ $.  $.[ [ [ [ [   $.$.$.$.$.$.  $.a.[ t.$.    $.[ [ [ [ [ [ a.$.( (     $.    $.",
"$.L 6 3 / n 6 1 3 J H g 1 3   $.[ [ [ [ t.$.[ [ $.  [ [ [ [ [ [ $.            $.t.$.[ [ $.    [ [ [ [ [ [ [ a.$.r K (     ( N   ",
"( K 1 1 K e G 3 J j 0 J 1 3   $.[ [ [ [ [ [ } [ [ [   $.[ [ [ [ [ [   $.[ [ [ a.[ [ [ [ $.  [ [ [ [ [ [ [ [ [ &.0 j K     ( [ C ",
"K 0 3 3 K K g 6 J j g G 1 3 X ( $.[ [ [ [ [ } } [ [   $.[ [ [ [ [ [   $.[ [ [ [ [ [ [ [ $.  [ [ [ [ [ [ [ [ [ 8.H j w K e ( [ [ ",
"0 H g j K w g 3 6 F 1 1 G g g X ( $.[ [ [ [ [ [ [ [   $.a.$.[ [ $.  [ [ } } [ [ [ [ [ $.  $.[ [ [ [ [ [ [ [ [ $.L w 0 j e ( $.  ",
"X g X X X X g X 6 3 1 1 J j 3 j   $.[ [ $.$.$.$.$.$.$.    t.[ [   $.[ [ } } | |  .| | [   $.[ [ [ $.[ $.[ [ [ $.L X X X X       ",
"1 1 1 1 6 g b b X X X g j j g j   $.$.$.(   X       $.  $.$.t.t.t.  $.$.[ |  .X.M.M.h.. [ $.[ [ [ [ [ [ [ [ [ $.X g 1 6 ( N [   ",
"- 2 1 1 h g m e X j g X X X X X X       X j g j X                   X   ( { j.r.v.v...o | [ [ C [ [ $.[ $.t.$.( X 3 2 1 H L ( $.",
"- 1 g b H m ( n X 3 1 1 1 1 1 1 1 3 3 3 1 1 1 3 X 0 X 6 3 3 3 3 3 3 3 6 X   D :.n.b.c...| [ [ [ [ a.[ $.&.3.4.X 3 2 2 2 1 g K ( ",
"2 3 b / m r n X 6 1 1 - - 2 1 1 1 2 2 2 2 2 2 1 X g 3 1 2 - 2 2 - - - 2 3 g 7.) ` n.1.h.{ ( ( ( ( ( &.3.e H g 3 2 - - - - 1 j K ",
"6 h 0 b m e X k 1 2 - - - 1 g x g h 1 1 1 1 - 1 X 6 1 2 - 2 1 l 2 - - 2 2 2 = ^ m.-.. A e j 6 3 3 6 0 j 3 1 1 2 2 - - - 2 1 3 J ",
"g k j b X X 0 g 1 - - - 2 3 m K x 6 z 6 z 1 2 1 X 6 1 - - 2 1 1 2 - - - - - & * *.u q X X X 1 1 1 3 X X 2 2 2 1 1 1 1 1 2 1 3 3 ",
"g j w X x j w b 1 - - 2 3 x / m k 6 6 h h 1 2 1 X 6 1 - - - 2 2 - - - - - * @ _ *.=.7 1 1 1 X X X X 6 2 2 2 X X X X X 3 3 3 6 g ",
"X X X X m 0 b k 1 - - 2 z j n m 6 1 6 h 3 1 2 1 X 6 1 - - - - - - - - - - * < _ $ % 4 - - 1 3 j X X 3 2 2 2 3 6 6 6 6 X 3 X X X ",
"1 1 g m ( m 6 1 2 - - 2 1 6 m b 3 2 2 1 l 1 2 1 X g 1 - - - - - - - - - - - - * R , = - - 2 3 3 3 3 X 3 2 2 2 1 1 1 1 1 2 2 1 1 ",
"- 2 6 k K b 1 - - - - 2 1 h k g 1 - - 2 1 1 2 1 X g 1 - - - - - - - - - - - - = Y Y = 1 2 1 1 l 2 1 3 X 1 2 - - - - - - - - - - ",
"2 2 2 4 h 6 2 - - - - 2 3 h 3 1 2 - - 2 1 l 2 1 X 6 1 - - - - - - - - - - - - = Y ; = 2 z 6 3 l 2 2 3 X 1 1 2 - - - - - - - - - ",
"2 - - 2 1 1 1 1 2 - 2 1 3 z 1 2 - - - - 1 1 2 1 X 3 1 - - - - - - - - - - - - = Y ; = 2 z 3 1 1 2 2 1 1 X 3 2 - - - - - - - - - ",
"- - - - 2 1 h h 1 2 l 1 1 1 1 1 2 - - - 2 2 - 2 X 3 2 - - - - - - - - - - - - = Y Y = 2 2 2 2 2 - - 1 1 X 3 1 2 - - - - - - - - ",
"- - - - - 1 g k 1 2 1 1 2 2 l 3 1 2 - - - - 1 2 1 1 2 - - - - - - - - - - - - * Y ; = - - - - - - - 2 1 X 3 1 2 - - - - - - - - ",
"- - - - - 1 6 v 3 l 1 1 2 2 6 h 1 1 2 - - 2 1 1 2 2 - - - - - - - - - - - = * E * = - - - - 2 2 - 2 1 1 X 3 2 - - - - - 2 2 - - ",
"- - - - 2 1 h 6 3 3 h 1 2 2 3 h z 1 2 - - 2 3 X 2 - - - - - - - - - - - - = > E = - - - - - 2 2 - 2 3 X 1 1 2 - - - - - 2 2 - - ",
"- - - 2 1 3 3 3 z 6 h 6 2 2 2 1 l 1 - - - 1 3 X 1 - - - - - - - - - - - - - = * E * - - - - - - - 1 6 X 1 2 - - - - - - - - - - ",
"- - - 2 2.d 5.d 3 6 g h 1 2 - 1 1 1 2 - 2 1 X 3 1 - - - - - - - - - - - - - = E Y ; = - - - - - - 1 X 6 1 - - - - - - - - - - - ",
"- - - 1 d 6.X f g h g h 3 1 2 2 1 1 2 - 1 1 X 3 2 - - - - - - - - - - - - - = E Y ; = - - - - - - 1 X 6 1 - 2 - - - - - - - - - ",
"- - - 1 d l.z.9.X 5 5 c v 6 2 2 l 6 1 1 3 X 1 1 2 - - - - - - - - - - - - - * * Y ; = - - - - - - 1 X 6 1 - 2 - - - - - - - - - ",
"- - - 1 x z.z.f 4 V.C.P c g 1 2 1 6 k j g X 1 2 - - - - - - - - - - - - - - - = E ; = - - - - - - 1 X 6 1 - - - - - - - - - - - ",
"- - - 1 d 6.z.l.6 B.C.P v k 1 2 1 h H b g X 1 - - - - - 2 2 - - - - - - - - - = E ; = - - - - - - 1 X 6 2 - - - - - - - - - - - ",
"- - - 2 1 d z.k.A.g 5 c g k 3 1 2 1 h 6 3 3 1 - - - - 2 1 1 2 - - - - - - - = * Y ; * = - - - - - 1 X 1 2 - - - - - - - = = = * ",
"= - 2 1 1 d z.x.l.d 6 h 6 h h 1 2 2 2 4 X 2 2 - = - - 2 2 8 2 - = = - - = * > E Y ; ; E = - - - - 2 1 1 = = = = - - - - = E E ; ",
"Y > 3 d d f x.k.6.3 4 : : : ! 8 = - E > Q : = * ; * - - = = - = Y ; = = E , R : E ; T T Y * - - = 2 6 X : Y Y Y ; = - = * ; E ; ",
"T W 5.6.6.l.x.k.d ~ E E E > : ! = = ; E X R E ; Y Y = - = E - * Y T = = T T 9 R , T I U + E = - = ~ 6 X E ; + T E * E * * E ; Y "
};
