/* XPM */
static char *_3a4078d2b8947b9938501ddeb14378303RufiNmt6N8veEZ[] = {
/* columns rows colors chars-per-pixel */
"64 64 219 2 ",
"   c black",
".  c #000100",
"X  c #010101",
"o  c #000200",
"O  c #000300",
"+  c #000201",
"@  c #000002",
"#  c #010002",
"$  c #000103",
"%  c #000400",
"&  c #000500",
"*  c #000600",
"=  c #000700",
"-  c #000004",
";  c #010004",
":  c #4E5E3A",
">  c #4F5F3A",
",  c #4F5F3B",
"<  c #4B6331",
"1  c #4C6730",
"2  c #4E6433",
"3  c #4C6732",
"4  c #4C6734",
"5  c #4E6436",
"6  c #4E6537",
"7  c #4F6537",
"8  c #4C6636",
"9  c #4C6637",
"0  c #4E6636",
"q  c #4E6038",
"w  c #4E6539",
"e  c #4F643B",
"r  c #4E653B",
"t  c #4E633C",
"y  c #4F633E",
"u  c #4F643D",
"i  c #51633B",
"p  c #51633D",
"a  c #51603F",
"s  c #51623E",
"d  c #52623E",
"f  c #4E5C42",
"g  c #505D43",
"h  c #525947",
"j  c #525B46",
"k  c #505C44",
"l  c #515F45",
"z  c #525E46",
"x  c #535F47",
"c  c #555F46",
"v  c #555F47",
"b  c #565E46",
"n  c #57574D",
"m  c #56574F",
"M  c #57574F",
"N  c #59564F",
"B  c #535A48",
"V  c #525B48",
"C  c #52584A",
"Z  c #53594B",
"A  c #535A4A",
"S  c #525B4A",
"D  c #55594B",
"F  c #56584A",
"G  c #545B4B",
"H  c #525E48",
"J  c #535F49",
"K  c #525E4A",
"L  c #535F4B",
"P  c #565E49",
"I  c #53594D",
"U  c #55584D",
"Y  c #56584D",
"T  c #535E4D",
"R  c #555E4D",
"E  c #555D4E",
"W  c #565E4F",
"Q  c #575651",
"!  c #565751",
"~  c #575652",
"^  c #565752",
"/  c #565654",
"(  c #595651",
")  c #555B51",
"_  c #565C52",
"`  c #565B54",
"'  c #585B54",
"]  c #4F6340",
"[  c #526140",
"{  c #536042",
"}  c #526142",
"|  c #516242",
" . c #516144",
".. c #536044",
"X. c #526144",
"o. c #536245",
"O. c #526046",
"+. c #536046",
"@. c #526047",
"#. c #54604A",
"$. c #5F7648",
"%. c #5F764C",
"&. c #676E5C",
"*. c #666F5C",
"=. c #656D5E",
"-. c #676D5F",
";. c #646F5E",
":. c #666F5E",
">. c #666E5F",
",. c #637253",
"<. c #627353",
"1. c #627255",
"2. c #637255",
"3. c #637157",
"4. c #647157",
"5. c #637158",
"6. c #627059",
"7. c #63715A",
"8. c #647058",
"9. c #64705A",
"0. c #65715B",
"q. c #64705C",
"w. c #65715D",
"e. c #65705F",
"r. c #656565",
"t. c #656567",
"y. c #676566",
"u. c #666467",
"i. c gray40",
"p. c #676767",
"a. c #676D61",
"s. c #676F60",
"d. c #666E61",
"f. c #656D62",
"g. c #676D63",
"h. c #676F62",
"j. c #666E63",
"k. c #666B64",
"l. c #666B65",
"z. c #676C65",
"x. c #666D65",
"c. c #676F64",
"v. c #676C66",
"b. c #666D66",
"n. c #696C61",
"m. c #696C63",
"M. c #696B66",
"N. c #686A67",
"B. c #696C65",
"V. c #686D66",
"C. c #6A6D66",
"Z. c #6B6C67",
"A. c #676568",
"S. c #666469",
"D. c #656668",
"F. c #666668",
"G. c #676769",
"H. c #66656A",
"J. c #67656A",
"K. c #686369",
"L. c #696468",
"P. c #686669",
"I. c #69646A",
"U. c #68666B",
"Y. c #666A69",
"T. c #676B6A",
"R. c #676C68",
"E. c #676B6C",
"W. c DimGray",
"Q. c #696B68",
"!. c #686A69",
"~. c #6A6A68",
"^. c #6B6B69",
"/. c #68696B",
"(. c #69696B",
"). c #6B696A",
"_. c #6A686B",
"`. c #696B6A",
"'. c #6A6A6A",
"]. c gray42",
"[. c #686D69",
"{. c #6A6C69",
"}. c #686C6B",
"|. c #6A6C6B",
" X c #69686D",
".X c #6B696C",
"XX c #6A686D",
"oX c #696A6C",
"OX c #6A6A6C",
"+X c #6A6B6D",
"@X c #6B6B6D",
"#X c #6A696E",
"$X c #6B696E",
"%X c #6C6A6D",
"&X c #6D686E",
"*X c #6C6A6F",
"=X c #7E8476",
"-X c #7E8677",
";X c #7E837C",
":X c #7E837D",
">X c #80837A",
",X c #81827C",
"<X c #80837C",
"1X c #80827D",
"2X c #81817F",
"3X c #80827F",
"4X c #817F84",
"5X c #847F85",
"6X c #847F86",
"7X c #818181",
"8X c #808082",
"9X c #808183",
"0X c #818183",
"qX c #828083",
"wX c #818085",
"eX c #838184",
"rX c #828085",
"tX c #828284",
"yX c #838186",
/* pixels */
"`.`.`.`.`.`.`.`.`.`.oXA.`.`.I.oX`.`.  `.`.`.`.`.`.`.`.`.`.`.`.`.`.`.`.`.`.`.`.`.`.`.`.`.`.`.  oX`.u.oXoX`.`.`.`.A.oX`.`.oXA.oXoX",
"`.`.`.`.`.`.`.`.|.`.oXoXu.`.oXA.oX  A.oX`.`.`.`.`.`.`.`.`.`.`.`.`.`.`.`.`.u.`.`.u.`.oXoX`.`.  A.`.`.A.oXoX`.`.`.A.A.`.`.oXA.A.oX",
"`.`.`.`.`.`.`.`.`.`.`.`.A.A.&XA.  A.oXA.`.`.`.`.`.`.`.`.`.`.`.`.`.u.A.A.oXoXA.A.oXA.A.A.oX`.  `.A.oXA.A.oXA.oXoXA.oXoXoX`.oXA.A.",
"`.`.`.`.`.`.oXoX`.`.`.`.oXA.I.A.  A.oXoXu.`.`.`.`.`.`.`.`.`.`.`.`.`.oXu.A.A.oXA.A.A.I.A.A.`.  `.A.u.&XI.I.I.A.oXoXA.A.oX`.`.A.I.",
"`.`.`.`.`.`.`.`.`.`.oXA.oXA.oXA.u.`.`.`.u.`.`.`.`.`.`.`.`.`.`.`.`.`.`.`.`.A.A.A.I.I.A.oXA.A.  oX`.A.A.I.K.I.I.A.oXoXA.A.oX`.A.A.",
"`.`.`.`.`.`.`.`.`.`.oXu.A.A.A.  `.`.`.`.`.`.`.`.`.`.`.`.`.`.`.`.`.`.`.|.`.`.oXA.A.A.I.A.oX`.A.oX`.`.A.u.A.I.I.A.A.A.I.K.A.oXoXI.",
"`.`.`.`.`.`.`.`.`.`.`.`.A.oXA.  `.`.`.`.`.`.`.`.`.`.`.`.`.`.`.`.`.`.`.`.`.`.`.`.`.`.A.A.A.u.  `.`.`.`.`.A.A.oXA.oXu.I.I.A.A.oXoX",
"`.`.`.`.`.`.`.`.`.`.`.`.oXA.A.  `.`.`.`.`.`.`.`.`.`.`.`.`.`.`.`.`.`.`.`.`.`.`.`.`.`.`.oX`.`.  `.`.`.`.`.`.oXA.`.A.A.A.A.A.&XA.oX",
"`.`.`.`.`.`.oXoX`.`.`.`.`.|.`.  `.`.`.`.`.T.`.`.`.`.`.`.`.`.`.`.`.`.`.`.`.`.`.`.`.`.`.`.`.`.  `.`.`.`.`.`.`.oXu.A.oXoXoXA.A.A.A.",
"`.`.`.`.`.`.oXoX`.`.`.`.`.`.`.  `.`.`.`.|.T.`.`.`.`.`.`.`.`.`.`.`.`.`.`.`.`.`.`.`.`.`.`.`.`.  `.`.`.oXoX`.`.oXoXoXA.`.`.`.A.A.oX",
"T.T.`.`.`.`.`.`.`.|.`.`.`.`.`.  `.`.`.`.`.`.`.`.`.`.`.`.`.`.`.`.`.`.`.`.`.`.`.`.`.`.`.`.|.  `.`.oXoX`.`.`.`.`.`.`.`.A.u.`.`.A.I.",
"`.`.`.`.`.`.`.`.`.`.`.`.`.`.`.  `.`.`.`.`.`.`.`.`.|.`.`.`.`.`.`.`.`.`.`.`.`.`.`.`.`.`.`.`.  `.`.oXoX`.`.`.`.`.`.`.`.oX`.`.`.A.A.",
"`.`.`.`.`.`.`.`.`.`.`.`.`.`.`.  `.T.`.`.`.`.oXoX    `.`.`.`.`.`.`.`.`.`.`.`.`.`.`.`.`.`.`.  `.|.`.`.`.`.`.`.`.`.oXoX`.`.`.`.oXA.",
"`.    `.`.`.`.`.`.`.`.z.g.z.  `.`.T.`.`.`.      `.`.        `.`.`.`.`.`.`.`.`.`.`.`.`.`.z.  z.z.k.k.`.`.`.`.`.`.oXoX`.`.|.`.oXoX",
"  `.`.            `.z.R O.O.  `.`.`.      |.oXoX`.|.A.A.oXoX    `.`.`.`.oXoX`.`.`.`.`.k.O.2.=.g.w.w.z.`.`.`.`.`.`.`.`.|.`.`.`.`.",
"`.`.`.`.`.`.`.`.`.    & & O.        `.`.`.`.oXA.oXoXoXA.A.A.oXoX    `.`.oXoX`.`.`.`.`.g.O.{ L 0.x O.g.z.`.`.`.`.`.`.`.`.`.`.`.`.",
"`.`.oXoX`.`.7XoX`.`.`.z.g.g.N.`.`.`.oX`.`.`.`.oXA.A.&XA.oXoXA.oX        `.`.`.`.`.`.`.N.& L x O.O.O.x &                         ",
"`.`.7XoXoXoX7XoXoX`.`.`.`.`.`.N.`.`.oXoX`.`.`.oXoXrXA.A.A.A.oXA.`.`.`.`.                  & & & & & O.0.g.`.`.`.`.`.`.`.`.u.oXoX",
"`.`.`.7X7XoXoX7X7XoX`.`.`.`.`.`.`.`.`.`.`.`.oXrXrXoXrXoXA.oX  oX`.`.oXoX`.`.`.`.`.`.`.`.`.z.z.z.k.g.7.O.R z.`.`.`.`.oXoXoXA.A.oX",
"`.`.oXoXrXrXoXoXrX7X`.`.`.`.`.`.`.`.`.`.`.oXoXrXrXrXrX7XoXA.A.oX`.`.oX7X`.`.`.`.|.`.`.`.`.`.`.`.`.z.7.O.g.z.`.`.`.u.oXA.A.A.A.A.",
"`.`.`.`.7X`.rXoXoX7X<X' g.;X7XoXoX`.<X<X7XrXoXrX7X7XoX`.`.  `.`.`.`.`.`.`.`.`.`.|.`.`.`.`.`.`.`.|.z.0.#.g.`.`.`.`.u.A.A.oXoXA.A.",
"`.`.`.`.oXoXrXoXoX`.<X<X) z.`.7X7X7X' <X`.7X7XoXoXoX`.`.`.  `.`.`.`.`.`.`.`.`.`.`.`.`.`.`.`.`.`.`.z.=.L g.z.`.`.`.`.u.oXu.`.oXA.",
"`.`.T.T.`.`.oX7XoXoX`.<Xg._ `.`.`.`.<X>X;Xz.N.`.`.`.oXoX|.  oXoX`.`.`.`.`.`.`.`.`.oXoXoX`.`.`.`.oX`.z.g.T =.z.`.`.`.`.`.`.u.A.oX",
"`.`.`.T.`.`.`.`.rXoXoX|.<X<X`.`.z.z.B.' ` z.`.`.`.`.oX`.T.  oXoX`.`.`.`.`.`.`.`.7XoXoX7XoXoXoXoX7XoX`.z.O.7.B.`.`.`.`.`.`.|.`.u.",
"`.`.`.`.`.`.oXoXoX7X`.`.`.`.7X<XR T z.`.`.`.`.`.`.`.`.`.`.`.  `.`.`.`.`.`.oXoXoX7X4X5X5XrXrXrXrXoX`.oXg.O.O.z.`.`.`.`.`.`.`.`.`.",
"`.`.`.`.`.`.oXoXoX`.`.`.`.`.oX`.=.=.z.oX`.`.`.`.`.`.`.`.`.`.  `.`.`.`.`.oX7XrXoXoXrX5X5XrXoXoXoXoX`.oXg.O.2.g.`.`.`.`.`.`.`.`.|.",
"`.`.`.`.`.`.`.`.|.`.`.`.`.`.`.`.z.z.`.`.`.`.`.`.T.T.`.`.`.`.  `.oX7X7XrXrXrX5X4XrX7XrXrXoXrX7XoX`.`.`.z.O.7.z.|.`.`.`.`.`.`.`.|.",
"B.z.z.R.`.`.`.`.`.`.`.`.`.`.`.`.`.`.`.`.`.`.`.`.T.T.`.`.`.`.  `.oXoXoXrXrXrX5XrXoXoXoXrX7XoXoXoX`.|.`.z.L 7.g.`.`.`.`.`.`.`.oXoX",
"x L R       `.`.`.`.`.`.`.`.T.T.`.`.`.|.`.`.`.`.`.`.`.`.T.`.  `.`.`.|.oX7XoXoX`.7X7XrXrX7X7XrX7X`.`.`.z.0.O.=.z.`.`.`.`.oXoX  `.",
"& & =.z.R.`.                  |.|.`.`.`.`.`.`.`.`.`.`.`.z.g.  N.z.k.`.oXoX7X7XoX`.oXoXoXoXoXoXoX`.`.    & O.L &             `.  ",
"z.z.z.R.`.`.`.oX`.`.oXoX`.`.              `.`.`.`.`.`.g.O.O.R =.w.=.<X7XoX`.`.`.`.`.`.`.`.`.        `.g.O.t 2.L =.z.`.oX|.`.oXoX",
"E.E.`.`.N.`.A.oX`.`.A.oXoX`.A.u.`.`.`.`.`.              & O.& =.L R `.`.`.`.`.`.            `.`.`.`.|.=.t %.,.O.x =.N.u.`.`.A.oX",
"`.`.`.`.`.|.`.u.oXA.oXA.A.  oXA.A.`.`.`.`.`.`.`.`.`.`.`.g.                      `.`.`.`.  `.`.|.`.N.B.0.e 5 2.2.p p g.`.A.oXoXA.",
"`.`.`.`.`.`.oX`.A.oXA.u.A.A.A.oXoXA.`.`.`.`.`.|.`.`.|.`.`.`.oX`.`.`.`.`.`.`.A.oXoXu.`.`.  `.`.|.`.z.g.L t t O.2.i p g.`.oXA.oXA.",
"`.`.T.T.R.`.`.`.`.u.oXoXA.  `.`.|.`.A.`.`.`.`.`.7XoXoX7X`.`.`.`.`.`.`.`.`.`.oXu.A.oXA.A.  `.`.`.`.z.g.R =.=.L 2.4.L z.`.`.oXA.A.",
"`.`.T.T.R.`.`.`.`.`.A.A.`.  `.`.`.`.oXoX`.`.`.7X`.oX7X`.`.`.`.T.`.`.oXA.u.oXA.A.oXA.A.  u.`.`.`.`.z.=.=.N.z.x 2.=.g.`.`.`.`.A.`.",
"T.T.T.T.`.`.`.`.`.`.`.`.`.  `.`.`.`.`.`.oXoX7XoXoX7XoX`.oX`.`.`.`.`.A.u.oXA.A.oXA.oXoX  `.`.`.`.`.z.w.L z.g.{ { =.`.`.|.`.`.`.`.",
"T.T.T.T.`.`.`.`.`.`.`.`.|.  `.`.`.`.`.`.`.7XoXoX7XoXoXoX7XoX`.|.`.`.oXoXA.A.oXA.A.oX`.  `.`.|.`.`.z.=.R z.g.,.{ g.`.`.`.`.`.`.`.",
"`.`.`.`.`.`.`.`.`.`.`.`.`.  `.`.`.`.`.`.oX7XoX7XoXoXoX7XoX`.oXoX`.`.`.`.`.`.A.u.oXA.oX  `.`.`.`.`.`.z.z.`.g.2.O.g.`.`.`.oXoX`.`.",
"`.`.`.`.`.`.`.`.`.`.|.`.`.  `.`.`.`.`.`.7XoXoXoX`.oX7XoX`.`.oXoX`.`.`.`.`.`.oXoXA.oXA.A.`.`.`.`.`.|.`.`.`.z.0.L z.`.oXoXoXoX`.`.",
"`.`.`.`.`.`.`.`.`.`.oXoX`.  `.`.`.`.`.`.|.`.`.`.oXoXrXoX`.`.`.`.`.`.`.`.`.`.`.`.`.A.A.A.`.`.`.`.oXoX`.oXoXB.0.L z.oXoXoXoX`.T.T.",
"`.`.`.`.`.`.`.`.`.`.oXoX`.  `.|.`.`.`.`.`.`.T.`.oXrXoXoX`.`.`.`.`.`.`.`.`.`.`.`.`.`.oXA.oX`.`.`.7X7X7XoX7X`.=.R R.rXrXrXoX`.T.T.",
"`.`.`.`.`.`.`.`.`.`.`.`.`.`.  `.`.`.R.R.`.`.`.`.rXoX`.`.`.`.`.`.`.`.`.`.`.`.`.`.`.`.  oXA.A.`.`.oX7X`.`.oX7X`.<X`.oXrXoXoX`.`.`.",
"`.`.`.`.`.`.`.`.`.`.`.`.`.`.  `.`.`.R.|.`.|.|.`.oXoX`.`.`.`.`.`.`.`.`.`.`.`.`.`.`.`.  `.oXoX`.`.oX7X`.`.oXoX7XoX`.`.7XoX`.`.`.`.",
"`.N.`.oX`.`.`.`.`.`.`.`.`.  oXoX|.`.`.`.`.`.T.T.`.`.`.`.`.`.`.`.`.`.`.`.`.`.`.`.`.`.  `.`.`.`.`.oX7X`.`.oXrXoX`.`.`.7X`.`.`.`.|.",
"`.`.`.oX`.`.`.`.`.`.`.`.`.  `.`.`.`.`.`.`.`.`.`.`.`.`.`.`.`.`.`.`.`.`.`.`.`.`.`.`.`.  `.`.`.`.`.oXoXoXoXoXoX`.`.`.`.oXoXoX`.`.`.",
"`.`.`.`.`.`.`.`.`.`.`.`.g.& g.z.`.`.`.`.oXoX`.`.|.`.`.`.`.`.`.`.`.`.`.`.`.`.`.`.`.`.  `.`.`.`.`.`.oX7X7X7XoX7XoXoXrX`.oX7X7XoXoX",
"            `.`.`.`.|.`.g.R L =.z.`.`.          `.`.`.`.`.`.`.`.`.`.`.`.`.`.`.`.`.  `.`.`.`.`.`.`.oXrXoXoXoXrXoXoX7XoXoX7XoXoXoX",
"`.`.`.`.`.`.              & 2.O.=.z.`.`.|.    `.            `.`.`.`.`.`.`.`.|.`.`.  `.`.`.`.`.`.`.oXrXrX7XoXrXoXoX7XoX7XoXoX7XoX",
"`.`.`.`.`.`.oX`.`.`.`.  `.g.O.O.R         `.`.`.`.  `.`.`.`.          `.`.`.`.`.`.  `.`.`.`.`.`.`.oXrXrX7XoXrXrXoX7XoXrX`.u.rX; ",
"`.`.`.`.oXA.oXA.A.oX    `.N.g.g.z.`.`.`.oXoXT.`.`.  `.`.`.`.`.`.`.T.`.                  |.`.`.`.`.oXrXrX7XoXrXrXoX7X  7X  u.A.oX",
"`.`.`.`.oXA.A.A.oXA.  `.`.`.`.`.`.`.`.oXoXoX`.`.u.`.`.`.`.`.|.`.T.T.|.`.u.`.`.`.`.u.  `.            ; ;     ; ;     oXoX`.oXA.A.",
"`.`.`.`.`.oXoXA.A.`.  `.`.|.`.`.`.`.u.oXoXu.A.oX  u.`.oX`.`.`.`.`.N.`.|.`.u.u.`.u.`.A.oXoXoX`.`.oXoXrXoXoXoXoXoXoX`.oXoX7XoX`.A.",
"`.`.`.`.`.`.oX`.`.`.  `.`.T.`.`.`.`.A.A.oXoXoXA.  `.A.u.u.`.`.`.`.`.`.`.`.`.oXu.`.`.A.  A.A.`.`.oXrXoXrXoXrXrXoXoXoX`.7XoX7XoXoX",
"`.`.`.`.`.`.`.`.`.`.  `.`.`.`.`.`.`.`.oXA.A.oXoXA.A.`.`.`.`.`.`.`.`.`.`.`.`.`.`.A.A.oX  `.`.A.oXoXrXoXrXrXoXrXrXrXrXrXoXoX7X`.`.",
"`.`.`.`.`.`.`.`.`.|.  `.`.`.`.`.`.|.`.`.oXoXA.oXoX  `.`.`.`.`.`.`.`.`.`.`.T.`.`.oXA.A.  `.`.`.oXoX7XoXrXoXoX&XrXrXoXrXoXoX7X`.`.",
"`.`.`.`.`.`.`.`.`.oX  `.`.`.`.`.`.`.`.`.`.`.`.`.`.  `.`.|.`.`.`.`.`.`.`.`.|.`.`.`.`.`.  `.`.`.`.`.7XrXrXoXoXoXoXoXoXoXrXoX7X`.`.",
"`.`.`.`.`.`.`.`.oXoX  `.`.`.|.`.`.`.`.`.`.`.`.`.`.  `.`.`.`.`.`.`.`.`.`.`.`.`.`.`.`.`.`.  `.`.`.`.`.rXoX7X7X7XoX7X7XrXrX7XoX`.`.",
"`.`.`.`.`.`.`.`.`.`.  `.`.`.`.`.`.`.`.`.T.T.`.`.`.  `.`.`.|.`.`.`.`.`.`.`.`.`.`.`.`.`.`.  `.`.`.`.`.rXoXoXrX`.`.rXoXoXrX`.`.`.`.",
"`.`.`.`.`.`.`.`.`.`.  N.N.|.`.`.`.`.`.`.`.T.`.`.`.  `.`.`.`.|.`.`.`.`.`.`.`.`.`.`.`.`.`.  `.`.`.`.`.rXoXoXoXoX`.z.z.<X`.`.`.`.`.",
"`.`.`.`.`.`.T.T.`.`.  g.g.z.`.`.oXoX`.`.`.`.`.`.`.  `.`.`.`.`.`.`.`.`.`.`.`.`.`.`.`.`.`.  `.`.`.`.`.4XrXoX7X7XN.O.2.=Xg.g.z.`.`.",
"C I B.N.`.`.`.`.N.z.& L x 0.g.z.g.m.N.N.`.`.z.g.g.& z.N.N.z.z.z.z.z.g.g.N.`.`.`.z.z.z.z.  N.B.B.g.g.m.<X7X`.`.=X] e O.0.x =.g.N.",
", { C Y M Q Q Q Y C x ,.e e O.O.{ O.h m.B.B.=.2.u p C g.g.=.w.0.7.7.{ f g.`.`.B.=.0.x h F =.m.=.p e p g m.<X=XO.t $.5 5 i p =.g.",
"5 p b F M N ( M F P O.p 5 5 , , q p b C Q Y L p 5 5 O.C C L O.O.O.] e p C Q / g.L O.{ O.P C F b 5 1 1 p F M h { u 5 1 1 < i b C "
};
