/* XPM */
static char *_fc0066cef074a28e1be146ebcdb664dFgEUfW3UOONzV6NW[] = {
/* columns rows colors chars-per-pixel */
"64 64 3 1 ",
"  c None",
". c black",
"X c #6ABE30",
/* pixels */
"................................................................",
"................................................................",
"................................................................",
"................................................................",
"................................................................",
"................................................................",
"................................................................",
"................................................................",
"................................................................",
"................................................................",
"................................................................",
"................................................................",
"................................................................",
"................................................................",
"................................................................",
"................................................................",
"....................................XXXX........................",
"................................XXXX....X.......................",
"...............................X.........XX.....................",
"..............................X...       ..X....................",
".............................X..          ..X...................",
"............................X.             ..X..................",
"...........................X.               ..X.................",
"..........................X.                 .X.................",
"..........................X.                 .X.................",
".........................X.                  .X.................",
".........................X                   .X.................",
"........................X.X                  XX.................",
"........................XX                   XX.................",
".......................X. X                  XX.................",
".......................X.  X                X X.................",
"......................X..  X               X  X.................",
"......................X.   X               X X..................",
"......................X.    X             X  X..................",
".....................X.     X             X  X..................",
".....................X.      X           X   X..................",
".....................X.      X           X   X..................",
".....................X.      X          X    X..................",
"....................X.        X        X     X..................",
"....................X.        X        X     X..................",
"....................X.         X      X      X..................",
"....................X.         X      X      X..................",
"...................X..         X     X      X...................",
"...................X.          X    X       X...................",
"...................X.           X  X        X...................",
"...................X.           X X         X...................",
"...................X.           X X         X...................",
"...................X.            X          X...................",
"...................X.           XX          X...................",
"...................X.          X X          X...................",
"...................X.         X   X         X...................",
"....................X        X    X         X...................",
"....................X       X      X        X...................",
"....................X      X       X        X...................",
"....................X     X        X        X...................",
"....................X    X          X       X...................",
"....................X    X          X       X...................",
"....................X   X            X      X...................",
"....................X  X             X     X....................",
"....................X  X              X    X....................",
"....................X X               X    X....................",
"....................XX                X    X....................",
"....................XX                 X   X....................",
".....................X.                X    X..................."
};
