/* XPM */
static char *a291877e4312413d8ee903752be565fe[] = {
/* columns rows colors chars-per-pixel */
"64 64 7 1 ",
"  c black",
". c #242A3B",
"X c #323737",
"o c #39482A",
"O c #3E4848",
"+ c #404444",
"@ c #484D4D",
/* pixels */
"@@@@@@@X     XXXXXXXXXX@@ XXXX@@@XXXXXXX@@XXXXX ooooooX   XXooo ",
".XX+XXX@@@@XX       @@@          @@                   @@XX@@@X@ ",
".XXX+XXXXXX@@XXXX@@@XXXXX XX@@@XXXXXXXX@@@XX XX@@@@@@@XX@@XXXXX@",
".XXX+++++XXXX@@@@@@@@@@XX +@XX+@@@@@@@@XXX@Xo X@XXXXXXXXXXXXXXX@",
"..XXXX+++++XXXXXXXXXXXX@X @+XXX++XXXXX++++X@  X@X++XXXXX+++XXX@ ",
"o..XXXX+++++++XXX+XX++XX@ @X+X+XX++++XXXXX@X X@XX+XXXXX+XXX+XX@ ",
"o@@.@XXXX+++X++X+X+XX+X@X @XX+XXXXXXXXXX+X@XoX@XXX+XXX+XXXXX+@  ",
" oo .@@X.X+++X++++X+X+X@X X@X++XXXXXXXXXX+@o XX@.X+XX+XXXXXXX@X ",
"@@@@@@ @@.X+X+X+++XX++X@X @+X+X++XXXXXXXX+@ X X@.XX+XXX++XXXX@  ",
" XXOOX@@Oo..+X+X++++XX@X X@X+++XX+XXXXXXX+o @X X.XXX+XXX+++XX@ O",
" XOXXOOO@ ooX+++++++++@X X+X+++++X+XXXXXX+o XOX @.XXX++++++++@ O",
" XOXXXXXOO  oX.+X+++++@X X+XX++++XXXXX+XXXo OO@ @.X@@@@@++oooo O",
" XOX+XX+X@O  oX.+++XXX++ X@++X++++XXXXX+++ @OOO@@X@OOOOOOOooXXoO",
" XOX++XX+X@O  @@XXX++X@X X@.++X++++++XX+++ @OOO@ oo OOOOO   ooO@",
"@XOX++XXX++@OOOO@@@@@X@X X@X.Xoooooooo+++X @OOO@  o+++++++++++ @",
"OXOX+++XXXX+@@   OOOO@@@ X..ooXXXX   @@@@@@@OOO@ o++XXXX+++XX+@X",
"XXOX+++XXXX+++@OO   OOO@...o@X@   X@@@   X@  O@ o+XXX+++XXXX+.@O",
"XOXXX+++XXXXX+X@@O O   X  .  @X@@@OOOOO@@    @ o+XXX+XXXXXX+X.@ ",
"X.XXX++X+XXXXX+X+@O@@@@@@@ @@XOO+OXXXXXOX@@X XXX+XXXXXXXXXX+X.@ ",
"OX.XXX++X+XXXXX+++XOXXXX@oOOOOX+X+XX+XXXOXX@ .X+XXXXXXXXXX+X+++ ",
"OOX.XX+++++XXXXXXX+XOOXX oOOX++XXXXX+++XXOX@.XX+XXXXXXXXXX+++.@ ",
" @OX.XX++++++XXXXXX++XOX oOOX++XXXXXXXX++OX@ .++XXXXX+XX+++X.X@O",
"O @OX.XXX+++++XXXXXXX++O oOOX+X+XXXXXXXXX+O@ XX+XXXXXX++++..@@@@",
"@ O@ O..XXXXX++++XXXXOXO @OXX++X+XXXXXXXXX+O@XX++XXXX+++X.@@@XX@",
"OOOO@ OX.XXXXX+++++XXOXO@XOXXXX+++++++++++X+OXX+++X+X++X.@@O@XX@",
"OO O@O  X..XXXX++++++OXO@OXX.XOOOXX+++XXX++XO.X++X++++@@. @@XXXO",
"O  XX@OOOOX...XXXX+XX.OX@XOOO.....OOOXOXXX++O.XX+XX++OO @XXXXXX.",
" OXXXXX@@@OO @@@@@@@.OOX@oo     O@@@...OOXO+@.XXX+++O@ @@XX+X.@O",
" OXXXXXXXOO@O  OOOOOOO@@Xo@@@@O@ OOO@@X.@O@X .XXXOO@@XXXXXX+X.XO",
" OX+XXXXX@@ @@@@XX     Xo@XXX++X@@@X   @...@  @@  XXXXXXXX++X.XO",
" OX++XXX@@@@@XXX@@@@@@ OoXXX+XX+X++XXOO @@X. @@ @XX+XXXXX+X+X.XO",
" OX+++XXXXX@XXXXXXXXXX@ @X++X+XX+++XXX+X O@X@XX+XXX++XXX+XX+X.XO",
" OX+++XXXXX.XXXX+++X++X Xo++++++XX++XXX+X  @@.+XXXXXX+X+X+++X.XO",
" OX++X+XXXX.XXXX+++++X+ XoX++X+++XX+++XX++X  .X+XX+++++++++X.XXO",
"OOXX++X+XXX.XXXXX++++XX o++X+++X+++X+X+XX++XO.XX+XX+++++X++X.XX ",
"OOX+X++X++X.XXXXX+++XXO XXX+++X+++X+X+++XX++X.@@X+XXX+X+++X..X@.",
".OX+++++X+XXX+XX+++++++ XXXX++++XX+X+XXX++X++.@XX++XXX+X+XX.XX@ ",
".OOX+X++XX++XX++XXXXXOX@  @O  +OOXXXX++XXX+X++@XXX++++++XXX.X.@ ",
".OOXX+X++XX++++++++XOXX@@@OX+O  +    XXX......@XXXX+XXXXXXXX.@@@",
".OOOX++X+++X++XX++++OX @@OXX++XXO+OOO  OO....X @  @@@@@@@ @X@@  ",
".OOOOX++X++++++++XXXXO@@OOXXX+XXX++XOOO @@@.@. @OO    OO@@@@ OO ",
"@.@OOXXX++X+X+++++++X@@ OO++XX+XXX++XX+X+ XO @.@OOOOOOOOOOOOOOO ",
"@.OOOOOOX+++++++++XXXO OOO+X+XX+XXX++X++X+OOO .OOOXXXXXOOOOOOOO ",
"@..OOXOXOOXXXX++++++XO @OOX+X+X+++XX++X++X+OOO.O@XXXXXXXXXXXXOO ",
"@O.O@O@@@@OOOXXX+++XXO@ OOXX++XX+X+XX++X++X+OO..@XXXXXXXXX+XOOO ",
"O .OO    X@@@OO+X+XXXO OOOOX+X+XX+X+X+++XX+X+O..@XX+++XXX+XXO@O ",
"X.OO@......XX@XXOOOOO  o@OOX++X++++X+XX++X++X+O.O@XXXXXX+XXXO@O@",
"OOXOOOOOO@@..X@@@@@O@@ o@OOX+++X+X+++++++++X++XO@XXXX++++XXXXX@@",
"O@OXOXXXXXX@@      X@X oo@OOX+++X+XX+X++++++++X. +XX+XX++X+X.O@@",
"@OXXXXX+XXXXX@@X++X@.@X ooOOX++XX+XXOOOOO++XXX@.@X++X++X++XXX.O ",
"@OXX+X+XXXXXXXXXXX+++X@X ooOOX+XXOOOXOOOOOOOOO .XXX++XX+X+++X.O ",
"@OXX+X+XXXXXXXXXXXXX+.X@ ooOOOX+OO@OOOOO@@OOO@ XXX+X+X++X++XX.O ",
"@OXX++++XXXXXXXXXXXXX+.X@ XoOOXOOO@@@@@@  @@@  @XXX++++XX++X..@ ",
"@.XX+X++++XXXXXXXXXXX+.XX@  @@O@@ XXXXXXXX    O@@+XX+++X+++X..@ ",
"@O.X+X++XX++XXXXXXXXXXX.X@XoXXXXXXXX+++++XX@ +XXXX+XXX+++X+X.X@ ",
"@O.X++X++XX++XXXXXXXXXX.X@.oXXXX++++XXXXX++@ @++XXX+X+X++++X.X@ ",
"@O.XX+XX++XXX++XXXXX+X+.X@oXXXXXXXXXXXXXXXX@ @X++X+X+XXX+++X.X@ ",
"@O.XX++++X+XXX++++XX++XXX@oXXXX+XXXXXXXXX+X@.@XX++X+X+XX++XXX@O ",
"@+.XXX+X++X++XXX++++X+XX@ .oXX+X++XXXXXXX+X@.O@XX++X++++X++XX@O ",
"@O++XXX+X++++++XXXXX++XX@ .X+XX++X++XXXXX+X@ .@XXXX+XX+X+XX++X@ ",
" @.X++X+XXX+++++++++XX+XX@.XX++XX++X+++++XX@O.O@XXXX+XX+++XXXX@ ",
" X@XXX+++XXX.+++++XXXXX+++XX++X++++++XX+++XX@. O@XXXX++XX++XX@@@",
"  X@....@+XXXXXXX.++..XX@@+.XX++XXXXX++++XX...........++XX+@@  @",
"    ooooooooo..XX.XX+.....XX.X..+.....+.....X...O@XX...+...  @@@"
};
