/* XPM */
static char *ac697524bd924eab9a2147d50d457de0J6Zvz56mw23i8RSX[] = {
/* columns rows colors chars-per-pixel */
"64 64 250 2 ",
"   c #010406",
".  c #050A0D",
"X  c #05080A",
"o  c #050C12",
"O  c #020816",
"+  c #071419",
"@  c #140C0A",
"#  c #2B1814",
"$  c #32221B",
"%  c #071A25",
"&  c #111E24",
"*  c #0D232A",
"=  c #0E2834",
"-  c #132A34",
";  c #17323C",
":  c #112831",
">  c #372A26",
",  c #2A373A",
"<  c #50251D",
"1  c #592D27",
"2  c #54332A",
"3  c #5C342D",
"4  c #553429",
"5  c #593B34",
"6  c #482E29",
"7  c #642D29",
"8  c #64322C",
"9  c #69352D",
"0  c #6B3630",
"q  c #6B3932",
"w  c #663A36",
"e  c #733D36",
"r  c #752E2D",
"t  c #571F19",
"y  c #37403F",
"u  c #5D463F",
"i  c #6A453B",
"p  c #75443B",
"a  c #78463B",
"s  c #1B3946",
"d  c #6C3F42",
"f  c #124656",
"g  c #2A4651",
"h  c #1C586B",
"j  c #25576B",
"k  c #2B6779",
"l  c #1F6072",
"z  c #4B4446",
"x  c #564E4D",
"c  c #6A4B44",
"v  c #754B42",
"b  c #7C4D43",
"n  c #794846",
"m  c #6A564A",
"M  c #7C524A",
"N  c #785248",
"B  c #6A5C53",
"V  c #7A5C52",
"C  c #745C51",
"Z  c #794C52",
"A  c #5A6B5F",
"S  c #6A695A",
"D  c #726A5B",
"F  c #7A6458",
"G  c #786968",
"H  c #6A776B",
"J  c #737463",
"K  c #787868",
"L  c #6B7E73",
"P  c #6D6D6E",
"I  c #516C6F",
"U  c #83473E",
"Y  c #824D43",
"T  c #864D49",
"R  c #835246",
"E  c #84544B",
"W  c #8C544B",
"Q  c #835B4E",
"!  c #8A564A",
"~  c #92564E",
"^  c #845A51",
"/  c #8B5B53",
"(  c #885A56",
")  c #945B53",
"_  c #985A56",
"`  c #A15A4D",
"'  c #8C635B",
"]  c #866559",
"[  c #93635C",
"{  c #9A625B",
"}  c #946D5F",
"|  c #9A6C59",
" . c #A4635C",
".. c #AF6A54",
"X. c #896D64",
"o. c #946562",
"O. c #956B64",
"+. c #9A6C66",
"@. c #867867",
"#. c #95746B",
"$. c #9B746B",
"%. c #9C7A6D",
"&. c #967566",
"*. c #9D7A71",
"=. c #9A7775",
"-. c #887977",
";. c #A56A64",
":. c #A3736C",
">. c #A77569",
",. c #A47C74",
"<. c #AB7B74",
"1. c #A67A76",
"2. c #B47C76",
"3. c #B3736B",
"4. c #778477",
"5. c #6F8272",
"6. c #97836E",
"7. c #898977",
"8. c #988677",
"9. c #87806E",
"0. c #A4837A",
"q. c #A9837A",
"w. c #B7847B",
"e. c #A4927C",
"r. c #C3877F",
"t. c #297587",
"y. c #787986",
"u. c #567881",
"i. c #927E87",
"p. c #3A818E",
"a. c #4C8893",
"s. c #6E8984",
"d. c #749591",
"f. c #6C9BA4",
"g. c #779EA4",
"h. c #4BA4B5",
"j. c #7AA9B9",
"k. c #6EA9B0",
"l. c #4893A6",
"z. c #57ACC2",
"x. c #70B6C9",
"c. c #72C5D5",
"v. c #7AD4E6",
"b. c #71D3E6",
"n. c #7EE5FC",
"m. c #7FE8FE",
"M. c #7EE3F5",
"N. c #5EC0CD",
"B. c #868C84",
"V. c #9A8688",
"C. c #889584",
"Z. c #9A9696",
"A. c #938E90",
"S. c #A98A85",
"D. c #B48B84",
"F. c #BA8B86",
"G. c #B8938B",
"H. c #AE978E",
"J. c #BAA997",
"K. c #AEA593",
"L. c #989CA6",
"P. c #819EA2",
"I. c #99A9B5",
"U. c #96ACB1",
"Y. c #BCAFA3",
"T. c #C58D83",
"R. c #C99689",
"E. c #D19889",
"W. c #C79A94",
"Q. c #CE9894",
"!. c #CCA49C",
"~. c #C5A499",
"^. c #D8A89C",
"/. c #C0B19E",
"(. c #D6ABA5",
"). c #DAB5AA",
"_. c #D8BAB6",
"`. c #CBB1A9",
"'. c #EBB9A9",
"]. c #E4BCB7",
"[. c #E0AEA5",
"{. c #E7A597",
"}. c #BEC8BF",
"|. c #D9C7B9",
" X c #C5C5B9",
".X c #E9C6BB",
"XX c #F2C3B5",
"oX c #EFD4BF",
"OX c #88B6C5",
"+X c #93BCCC",
"@X c #A0BCC0",
"#X c #98C8D6",
"$X c #89CAD6",
"%X c #ACCED5",
"&X c #86D7EA",
"*X c #99D8E9",
"=X c #8ED9EF",
"-X c #AED9EA",
";X c #84E6FE",
":X c #8BE7FD",
">X c #84E9FF",
",X c #8DEAFF",
"<X c #87E5F6",
"1X c #93E7FD",
"2X c #9AE6FC",
"3X c #94EAFE",
"4X c #9BEAFF",
"5X c #99E5F5",
"6X c #86F3FF",
"7X c #8CF2FF",
"8X c #8FF8FC",
"9X c #92F1FF",
"0X c #99F2FF",
"qX c #9BE0EF",
"wX c #A3EAFB",
"eX c #A7E8F8",
"rX c #B4E6F5",
"tX c #B3EBFB",
"yX c #B9EBF8",
"uX c #BDEDF8",
"iX c #DCCAC3",
"pX c #DAD7D8",
"aX c #D1CBC6",
"sX c #E8CAC3",
"dX c #E7D5C8",
"fX c #F6D4CB",
"gX c #E7D7D4",
"hX c #F8DCD5",
"jX c #EFCCCE",
"kX c #F5E4DB",
"lX c #F8E3D9",
"zX c #EAE3D5",
"xX c #C8D9E4",
"cX c #C8E3EC",
"vX c #D8E4EA",
"bX c #CBEBF5",
"nX c #C8E9F5",
"mX c #D7ECF7",
"MX c #DBF1F8",
"NX c #E6E5E8",
"BX c #FCECE3",
"VX c #F7EAE4",
"CX c #FCF4EC",
"ZX c #FCF4E7",
"AX c #E9F6F9",
"SX c #FEFCF4",
"DX c #FFFF00",
"FX c #F5F7F5",
"GX c #EEEEF3",
"HX c #E8DBE2",
/* pixels */
"DXDXDXDXDXDXDXDXDXDXDXDXDXDXDXDXDXDXDXDXDXDXDXDXDXDXDXDXDXDXDXDXDXDXDXDXDXDXDXDXDXDXDXDXDXDXDXDXDXDXDXDXDXDXDXDXDXDXDXDXDXDXDXDX",
"DXDXDXDXDXDXDXDXDXDXDXDXDXDXDXDXDXDXDXDXDXDXDXDXDXDXDXDXDXDXDXDXDXDXDXDXDXDXDXDXDXDXDXDXDXDXDXDXDXDXDXDXDXDXDXDXDXDXDXDXDXDXDXDX",
"DXDXDXDXDXDXDXDXDXDXDXDXDXDXDXDXDXDXDXDXDXDXDXDXDXDXDXDXDXDXDXDXDXDXDXDXDXDXDXDXDXDXDXDXDXDXDXDXDXDXDXDXDXDXDXDXDXDXDXDXDXDXDXDX",
"DXDXDXDXDXDXDXDXDXDXDXDXDXDXDXDXDXDXDXDXDXDXDXDXDXDXDXDXDXDXDXDXDXDXDXDXDXDXDXDXDXDXDXDXDXDXDXDXDXDXDXDXDXDXDXDXDXDXDXDXDXDXDXDX",
"DXDXDXDXDXDXDXDXDXDXDXDXDXDXDXDXDXDXDXDXDXDXDXDXDXDXDXDXDXDXDXDXDXDXDXDXDXDXDXDXDXDXDXDXDXDXDXDXDXDXDXDXDXDXDXDXDXDXDXDXDXDXDXDX",
",X3X3X3X,X,X,X,X3X3X3X3X3X,X,X,X,X,X,X,X3X3X3X3X3X3X3X3X3X3X3X3X3X3X4X4X3X3X4X4X4X4X4X4X4X4X4X4X4X4X4X4X4X4X4X4X4X4X4X4X4X4X4X4X",
",X,X3X,X,X,X,X,X3X3X3X3X3X3X3X,X,X,X,X,X3X3X3X3X3X3X3X3X3X3X3X3X3X3X3X3X3X3X4X4X4X4X4X4X4X4X4X4X4X4X4X4X4X4X4X4X4X4X4X4X4X4X4X4X",
",X,X3X3X,X,X,X,X3X3X3X3X3X3X3X3X,X,X,X3X3X3X3X3X3X3X3X3X3X3X3X3X3X3X3X3X3X3X4X4X4X4X4X4X3X4X4X4X4X4X4X4X4X4X4X4X4X4X4X4X4X4X4X4X",
",X,X,X,X3X,X,X,X3X3X3X3X3X3X3X3X,X,X3X3X3X3X3X3X3X3X3X3X3X3X3X3X3X3X3X3X3X4X4X4X4X4X4X4X4X4X4X4X4X4X4X4X4X4X4X4X4X4X4X4X4X4X4X4X",
",X,X,X,X3X3X,X,X3X3X3X3X3X3X3X3X,X,X3X3X3X,X3X3X3X3X3X3X3X3X3X3X3X3X3X3X4X4X4X4X4X4X4X4X4X4X4X4X4X4X4X4X4X4X4X4X4X4X4X4X4X4X4X4X",
"3X3X,X3X3X3X,X,X3X3X3X3X3X3X3X,X,X,X3X1X4XuXuXeXtXwXeXuXeX3X3X3X3X3X3X3X3X3X4X4X4X4X4X4X4X4X4X4X4X4X4X4X4X4X4X4X4X4X4X4X4X4X4X4X",
",X3X3X3X3X,X,X,X,X,X,X,X,X,X3X,X,X3X4XwXrXNXGXFXDXFXMXAXAXeX1X3XwXwX3X4X4X4X4X4X3X4X4X4X4X4X4X4X4X4X4X4X4X4X4X4X4X4X4X4X4X4X4X4X",
",X,X3X3X3X3X,X,X3X,X,X,X,X3X,X3X,X9XqX%X}. XaXzXVXCXSXFXDXAXrXrXbXtX3X4X4X4X4X4X4X3X3X4X4X3X4X4X4X4X4X4X4X4X4X4X4X4X4X4X4X4X4X4X",
",X,X,X,X3X3X,X,X,X,X,X,X3X3X,X4X4X$Xg.C.K.K.K.K.Y.|.dXzXVXCXSXGXNXbX5X4X4X4X4X4X4X3X3X4X3X3X4X4X4X4X4X2X4X4X4X4X4X4X4X4X4X4X4X4X",
",X,X,X,X3X,X,X,X,X,X,X,X3X,X4X*XU.4.5.B.7.K @.8.H.Y.|.dXzXZXZXSXDXFXnXeX4X4X3X3X3X4X4X4X3X3X4X4X4X4X4X4X4X4X4X4X4X4X4X4X4X4X4X4X",
",X,X,X,X,X,X,X,X,X,X,X3X,X3X#Xd.H S K J D 7.7.8.H.J./.J.`.|.zXdXlXCXDXmXtX2X4X4X4X4X3X4X3X3X4X4X3X4X4X4X4X4X4X4X4X4X4X4X4X4X4X4X",
",X,X,X3X3X,X,X,X,X,X,X,X,X$Xd.H B S J J 7.7.@.8.H.8.8.e.J.dXdXr.).CXDXSXmX2X4X4X4X4X3X3X4X2X4X2X4X4X4X3X4X4X4X4X4X4X4X4X4X4X4X4X",
",X,X,X3X3X,X,X,X,X,X,X,X<Xk.H S B S J 4.@.@.@.@.F X.8.J.dXgX| ..).SXDXDXAXeX4X4X4X3X3X3X*XxXrX2X2X4X*XxXtX4X4X4X4X4X4X4X4X4X4X4X",
",X,X,X,X,X,X,X,X,X,X:X,Xc.s.m x D J J J J @.6.V v 8.S.dXlX~._ w..XdXdXlXSXbXeX4X4X4X2X2XI.W.vXwX4X4XL.Q.cX4X4X4X4X4X4X4X4X4X4X4X",
",X,X,X,X,X,X,X,X,X:X,X&Xf.L x J @.D D J K 9.%.v ' H.J.gXgXD.w.).lXsXE.oXSXAXeX4X4X4X4X1XL.F.HXrX3X2XA.Q.vXwX4X4X4X4X4X4X4X4X4X4X",
",X,X,X,X,X,X,X,X,X,X,Xc.d.H K C.K D D @.@.8.X.R :.D.H.iX|.D.W.sXSXSX.XlXDXAXeX3X4X4X4X3XI.:._.cX2X5XV.2.pXeX4X4X4X4X4X4X4X4X4X4X",
":X,X,X,X,X,X,X,X,X,X:Xk.s.L C.7.K B F 7.8.8.] / :.,.J.dXW.2.Q.).jXVXlXkXCXDXeX4X4X1X1X4X#X=.W.NXeX4XZ.>.gXrX4X4X4X4X4X4X4X4X4X4X",
":X,X,X,X,X,X,X,X,X,X&Xf.s.5.4.4.K c m 8.8.#./ W +.w.`.dXw.;.T.Q.Q.].ZXVXkXSXtXqX-XbX5X3X5XA.<.gXbX4XI.;.iXbX2X4X4X4X4X4X4X4X4X4X",
":X,X,X,X,X,X,X,X,X,X&Xf.d.5.4.7.K i C C.8.] [ W { W.`.|.F.;.E.^.(.sXCXBXlXFXuX#XS.jXnX2X4XI.$.!.NXwX@X;.!.vX2X4X4X4X4X4X4X4X4X4X",
":X,X,X,X,X,X,X,X,X,Xv.g.d.4.4.7.J N F 8.X.( / T W R.).~.F.;.[.fXkXkXBXBXlXSXuX=XV.W.GXtX4X*X8.w.jXbX#X>.w.gXeX4X4X4X4X4X4X4X4X4X",
":X,X,X,X,X,X,X,X,X,X&Xk.s.4.4.C.F M ] ] / ! E W W ;.F.2.3. .Q..XVXSXCXkXfXZXtX3XU.=.(.vXeX1XZ.+.(.GX%X%.3.dXyX4X4X3X3X4X4X4X4X4X",
":X:X,X,X,X,X,X,X,X,X&Xf.5.4.4.B.V Q ^ E R b R W ) ) _ ;.>.{ T.(.fXSXDXhX.XkXtX3X*XZ.,.|.MXwX+XO.<.jXpX$. ._.bX4X4X4X4X4X4X4X4X4X",
":X:X:X:X:X:X:X,X:X,X<Xf.L L 5.L N ^ ^ N v p i i v b ) ;.;. .>.W.].jXCXBXsXNXwX3X4X#XV.D.jXMX*Xi.{ G.hXD._ !.mX2X4X4X4X4X4X4X4X4X",
":X:X:X:X:X:X:X:X:X:X<Xa.A L J D N ^ Q M v i 5 6 6 w R { ;.;.{ p N +.!.lXhXvX3X3X3X2XI.S.H.iXcXL.o.+.(.]._ F.vXwX4X4X3X3X4X4X4X4X",
":X:X:X:X:X:X:X:X:X:X:XI A L S m V ( ^ ^ N 5 , , z w b ~ >.{ e > > 5 o..XBXrX3X4X4X3X5XI.0.D.iXaXX.[ ,.].2.+.pXtX3X4X0XwX-XeX4X4X",
":X:X:X:X:X:X:X:X:X,XOXG K L D m ^ Q E Q w 5 z x c 3 q a { p 3 z y 5 p .XSXrX3X4X3X3X3X*XZ.%.S.sXW.M o.D..XD._.bX1X4X#XV.R.xX4X4X",
":X:X:X:X:X:X:X:X:X,XP n @.K J F V E R b a N Z n w w q e _ >.w d c q.G.).SXtX3X3X3X3X3X3X#XV.=.S.jX1.^ o.(.BXfXNXwX@X+.Q.aXeX4X3X",
">X>X>X:X:X>X:X:X:X7Xy.r ' @.K F ^ E R b b E / E n e p a T _.O.n ~ (.ZXlXVX%X*X4X0X4X3X3X4X#X=.,.G.].,./ <.sXCXCXcXS....XnX4X4X4X",
">X>X>X>X:X:X:X:X:X7Xj.e p N @.F V Q R R R E W R Y Y a Y U `.hX<.<.(.hXBXzXV.1.L.#XqX2X4X3X3XU.+.*.q.!.<.o.w.hXSXGX2.` (.bX3X4X4X",
">X>X>X:X:X:X:X>X:X,X&XZ t q ] F V Q R ! W W W W ! Y b R U F.CX3.;.T..XhXNXI.=.>.=.V.A.L.#X*XA.E O.+.:.W.W.D._.SXSXsX` R.bX3X4X3X",
">X>X:X:X:X:X:X:X:X;X,Xy.r 0 b C V E E ! ~ ~ ~ ~ W R a b b ;.hX2.` T.^.XXNX2X#XZ.0.0.$.+.o.=./ b E / o.$.G.).G.gXSXSX.X'.NXwX3X4X",
">X:X:X>X>X>X>X>X>X;X,XOXn T p N V R E ! ~ ) ) ~ W b b b E { (.Q.` E.[.XXmX1X3X2X#XU.Z.8.0.,.0.$.' ( ' O.o.!.sXG.VXSXSXsXhXuX3X3X",
">X>X;X>X>X>X>X>X;X>X;X,Xj.G p c C M E ! W ~ ) ) W Y R < b <.w.3. .E.XXjXrX3X3X3X7X3X5X#XU.Z.0.0.$.O.o.O.O.O.).sX_.SXDXVXjXmX3X3X",
">X>X;X;X;X;X>X>X>X>X;X:X7X=XP i C b E E R ~ _ _ W b b a E w.).{ _ T.XXgX2X,X3X3X3X3X3X3X3X*XA.%.*.%.$.$.#.O.$.).fXVXDXSXBXbX3X3X",
">X;X;X>X>X;X>X;X>X>X>X;X;X,Xf.c m v b R R ~ ) ! Y b a b R :.fX!.w.R.'.gX2X3X3X3X3X3X3X1X:X,X*XB.&.&.&.$.$.#.O.0.].BXSXSXBXnX3X3X",
">X>X>X>X>X;X>X;X>X;X>X>X;X,Xj.u m v b R R ! / R b b b E R +..X).T.(.'.pX1X3X3X,X3X,X,X,X,X,X9X#X-.&.&.X.X.&.$.$.W.jXkXCXCXnX3X3X",
";X>X>X>X>X>X>X>X>X>X>X>X;X,Xx.x c c b R Y R E R / ^ E T ~ ;.W.F.$.^.'.xX,X,X,X,X,X,X,X,X,X,X3X3XOX@.&.%.#.$.%.,.0.(.hXBXDXMX5X3X",
";X>X>X>X>X;X>X;X>X>X>X>X;X,Xv.x 5 c v b Y R Q ] N w 8 7 r T !.~.{ E.XX-X,X,X,X,X,X,X,X,X,X,X3X3X3XP.@.6.6.%.*.%.#.q..XBXZXSXyX3X",
">X;X>Xm.m.m.>X>X;X;X;X>X;X>Xv.x 3 5 c v a b ^ Q Q ^ ( _ _ :.!.fX!.E.iX5X,X,X,X,X,X,X,X,X,X,X,X3X3X5XB.@.8.8.6.6.*.%.G.hXCXCXGX2X",
"n.m.m.m.m.;Xm.m.>X>X>X;X;X>Xv.x 3 2 5 v v v Q Q ( [ o.o.' ' :.W.!.).%X:X,X,X,X,X3X,X,X,X,X,X,X,X,X3X*XB.@.6.6.%.%.%.#.~.ZXZXVXrX",
"n.>Xm.m.>Xm.>X>X;Xn.;X;X;X6Xz.z 3 3 2 w i a N b M / o.[ / [ ,.G.^.|.5X,X,X,X,X,X,X,X,X,X,X,X,X,X3X3X3X5XP.X.} $.%.%.$.,.sXZXlXcX",
"m.m.m.m.m.m.n.n.>X8X6X>X>Xz.A 5 3 1 2 2 3 i v v b M b b b [ Q.].).%X>X,X,X,X,X,X,X,X,X,X,X,X,X,X,X3X1X,X3XOXX.' &.$.$.:.G.fXlXNX",
"n.n.n.n.n.n.>X6Xb.a.k.c.u.z u 5 1 1 1 2 6 2 w i v b v b E E :.Q._.5X:X3X:X,X:X:X:X,X,X,X,X,X,X,X,X,X,X,X:X9X*XG / &.%.:.q.].hXzX",
"6X6X6X>X6X>Xc.t.*   . > 3 3 5 2 1 3 8 7 3 2 2 5 i N M ^ ^ / / S.*X>X:X:X:X:X:X,X:X:X,X,X,X,X,X,X,X:X,X,X,X:X9XOX^ } &.:.,.(.lXhX",
"k p.l.c.z.j %   X o . X 6 3 2 2 3 8 7 7 8 3 3 2 3 w i N M R O.#X:X>X>X>X>X>X:X:X:X:X:X,X,X,X,X,X,X,X,X,X,X,X3X=X-.} &.$.1.G.fXlX",
"    X + O X o o . . . . X $ 2 2 3 8 8 8 9 8 q w i i w p :.>._.4X;X>X>X>X>X,X:X:X:X:X:X:X:X:X:X,X,X,X,X,X,X,X,X1Xd.] #.$.1.w.].BX",
"o + o o o o . . X . . . . X # 6 1 8 9 0 0 0 q e a a p R T.E.Y.v.8X:X;X>X:X,X:X>X:X:X>X:X:X:X:X,X,X,X,X,X,X,X,X,Xj.X.#.$.,.w.!.hX",
". o . . o o . . . . . . . .   @ # 1 9 0 0 9 q e q 8 9 U ;.E.-.l z.<X8X>X;X>X>X>X:X:X:X:X,X,X:X:X:X,X,X,X,X,X:X9X$XG #.%.,.q.W.sX",
"X . . o . . . . . . . . . . . .   @ # < 1 8 8 7 1 t t 9 ~ {.P f j h a.:X7X<X,X>X;X:X:X:X:X:X:X,X,X:X:X,X,X,X,X3X&XP O.#.*.0.G._.",
". . . . . . . . . . . . . . . . . .   X @ @ # $ $ $ > < T W.g g g g O j c.>XM.>X8X;X:X,X:X:X:X:X:X:X,X,X,X,X:X,X;Xs.] #.*.0.D.!.",
". . . . . . . . . . . . . . . . . . . . . . X X o + * : , g s g s g : O ; k h f h.8X<Xb.,X,X:X:X,X,X:X,X,X,X,X:X,Xg.F #.#.*.q.G.",
". . . . . . . . . . . . . . . . . . o . . . . . o + % * = s s s s ; ; O + = ; % % p.k f h.9X:X>X:X:X,X,X:X,X,X:X7Xx.V X.#.*.,.D.",
". . . . . . . o o X . . . . . . o o o o o o . . o + * - ; s g ; = ; ; & . & - + O = % s f h.9X,X7X7X>X>X,X,X,X:X7Xc.B ] #.$.,.,.",
". . . . . . . . . . . . . o o + + + + . . . . . . + * - ; s s ; % s : ; + + - + O * : : ; f t.N.h.t.l t.b.,X:X,X7Xv.S Q X.#.*.,.",
"DXDXDXDXDXDXDXDXDXDXDXDXDXDXDXDXDXDXDXDXDXDXDXDXDXDXDXDXDXDXDXDXDXDXDXDXDXDXDXDXDXDXDXDXDXDXDXDXDXDXDXDXDXDXDXDXDXDXDXDXDXDXDXDX",
"DXDXDXDXDXDXDXDXDXDXDXDXDXDXDXDXDXDXDXDXDXDXDXDXDXDXDXDXDXDXDXDXDXDXDXDXDXDXDXDXDXDXDXDXDXDXDXDXDXDXDXDXDXDXDXDXDXDXDXDXDXDXDXDX",
"DXDXDXDXDXDXDXDXDXDXDXDXDXDXDXDXDXDXDXDXDXDXDXDXDXDXDXDXDXDXDXDXDXDXDXDXDXDXDXDXDXDXDXDXDXDXDXDXDXDXDXDXDXDXDXDXDXDXDXDXDXDXDXDX",
"DXDXDXDXDXDXDXDXDXDXDXDXDXDXDXDXDXDXDXDXDXDXDXDXDXDXDXDXDXDXDXDXDXDXDXDXDXDXDXDXDXDXDXDXDXDXDXDXDXDXDXDXDXDXDXDXDXDXDXDXDXDXDXDX",
"DXDXDXDXDXDXDXDXDXDXDXDXDXDXDXDXDXDXDXDXDXDXDXDXDXDXDXDXDXDXDXDXDXDXDXDXDXDXDXDXDXDXDXDXDXDXDXDXDXDXDXDXDXDXDXDXDXDXDXDXDXDXDXDX"
};
